# Blender 4.4.1
# www.blender.org
mtllib corn.mtl
o Plane.003
v -0.471708 1.571675 0.435494
v 0.435494 1.571675 0.471708
v -0.435494 1.571675 -0.471708
v 0.471708 1.571675 -0.435494
v 0.000000 1.982310 0.000000
v -0.534825 -0.001229 -0.000000
v 0.534825 -0.001229 -0.000000
v -0.534825 2.545353 0.000000
v 0.534825 2.545353 0.000000
v -0.534825 2.036036 0.000000
v -0.534825 1.526720 0.000000
v -0.534825 1.017404 -0.000000
v -0.534825 0.508087 -0.000000
v 0.534825 0.508088 -0.000000
v 0.534825 1.017404 -0.000000
v 0.534825 1.526720 0.000000
v 0.534825 2.036036 0.000000
v 0.000000 -0.001229 -0.000000
v 0.000000 2.545353 0.000000
v 0.000000 0.508088 -0.000000
v 0.000000 1.017404 -0.000000
v 0.000000 1.526720 0.000000
v 0.000000 2.036036 0.000000
v 0.000000 -0.001229 -0.534825
v 0.000000 -0.001229 0.534825
v -0.000000 2.545353 -0.534825
v -0.000000 2.545353 0.534825
v -0.000000 2.036036 -0.534825
v 0.000000 1.526720 -0.534825
v 0.000000 1.017404 -0.534825
v 0.000000 0.508087 -0.534825
v 0.000000 0.508088 0.534825
v -0.000000 1.017404 0.534825
v -0.000000 1.526720 0.534825
v -0.000000 2.036036 0.534825
v 0.000000 -0.001229 0.000000
v -0.000000 2.545353 -0.000000
v 0.000000 0.508088 0.000000
v 0.000000 1.017404 0.000000
v -0.000000 1.526720 -0.000000
v -0.000000 2.036036 -0.000000
v -0.384876 -0.001229 -0.371360
v 0.384876 -0.001229 0.371360
v -0.384876 2.545353 -0.371360
v 0.384876 2.545353 0.371360
v -0.384876 2.036036 -0.371360
v -0.384876 1.526720 -0.371360
v -0.384876 1.017404 -0.371360
v -0.384876 0.508087 -0.371360
v 0.384876 0.508088 0.371360
v 0.384876 1.017404 0.371360
v 0.384876 1.526720 0.371360
v 0.384876 2.036036 0.371360
v 0.000000 -0.001229 -0.000000
v -0.000000 2.545353 0.000000
v 0.000000 0.508088 -0.000000
v 0.000000 1.017404 -0.000000
v -0.000000 1.526720 0.000000
v -0.000000 2.036036 0.000000
v 0.389398 -0.001229 -0.366615
v -0.389398 -0.001229 0.366616
v 0.389398 2.545353 -0.366616
v -0.389399 2.545353 0.366615
v 0.389398 2.036036 -0.366616
v 0.389398 1.526720 -0.366616
v 0.389398 1.017404 -0.366615
v 0.389398 0.508087 -0.366615
v -0.389398 0.508088 0.366615
v -0.389398 1.017404 0.366615
v -0.389398 1.526720 0.366615
v -0.389399 2.036036 0.366615
v 0.000000 -0.001229 0.000000
v -0.000000 2.545353 -0.000000
v 0.000000 0.508088 0.000000
v 0.000000 1.017404 0.000000
v -0.000000 1.526720 -0.000000
v -0.000000 2.036036 -0.000000
v -0.453962 0.172330 0.453962
v 0.453962 0.172330 0.453962
v -0.453962 0.172330 -0.453962
v 0.453962 0.172330 -0.453962
v 0.000000 0.582965 0.000000
v -0.301056 0.487652 0.567035
v 0.567035 0.487652 0.301056
v -0.567035 0.487652 -0.301056
v 0.301056 0.487652 -0.567035
v 0.000000 0.898287 0.000000
v -0.301056 0.992890 0.567035
v 0.567035 0.992890 0.301056
v -0.567035 0.992890 -0.301056
v 0.301056 0.992890 -0.567035
v 0.000000 1.403525 0.000000
v -0.534825 -0.599419 -0.000000
v 0.534825 -0.599419 -0.000000
v 0.000000 -0.599419 -0.000000
v -0.384876 -0.599419 -0.371360
v 0.384876 -0.599419 0.371360
v 0.000000 -0.599419 -0.000000
v -0.389398 -0.599419 0.366616
v 0.000000 -0.599419 0.000000
vn -0.3959 0.8424 0.3655
vn 0.3655 0.8424 0.3959
vn -0.3655 0.8424 -0.3959
vn 0.3959 0.8424 -0.3655
vn -0.0000 1.0000 -0.0000
vn -0.0000 -0.0000 1.0000
vn -1.0000 -0.0000 -0.0000
vn -0.6944 -0.0000 0.7196
vn -0.6855 -0.0000 -0.7281
vn -0.3810 0.8424 0.3810
vn 0.3810 0.8424 0.3810
vn -0.3810 0.8424 -0.3810
vn 0.3810 0.8424 -0.3810
vn -0.2527 0.8424 0.4759
vn 0.4759 0.8424 0.2527
vn -0.4759 0.8424 -0.2527
vn 0.2527 0.8424 -0.4759
vt 0.000000 0.000000
vt 1.000000 0.000000
vt 0.500000 0.500000
vt 1.000000 1.000000
vt 0.000000 1.000000
vt 0.500000 0.800000
vt 1.000000 0.800000
vt 0.500000 1.000000
vt 0.500000 0.000000
vt 1.000000 0.200000
vt 0.500000 0.200000
vt 1.000000 0.400000
vt 0.500000 0.400000
vt 1.000000 0.600000
vt 0.500000 0.600000
vt 0.000000 0.600000
vt 0.000000 0.800000
vt 0.000000 0.400000
vt 0.000000 0.200000
s 1
usemtl corn
f 1/1/1 2/2/2 5/3/5
f 4/4/4 3/5/3 5/3/5
f 5/3/5 3/5/3 1/1/1
f 5/3/5 2/2/2 4/4/4
f 23/6/6 17/7/6 9/4/6 19/8/6
f 18/9/6 7/2/6 14/10/6 20/11/6
f 20/11/6 14/10/6 15/12/6 21/13/6
f 21/13/6 15/12/6 16/14/6 22/15/6
f 22/15/6 16/14/6 17/7/6 23/6/6
f 11/16/6 22/15/6 23/6/6 10/17/6
f 12/18/6 21/13/6 22/15/6 11/16/6
f 13/19/6 20/11/6 21/13/6 12/18/6
f 6/1/6 18/9/6 20/11/6 13/19/6
f 10/17/6 23/6/6 19/8/6 8/5/6
f 41/6/7 35/7/7 27/4/7 37/8/7
f 36/9/7 25/2/7 32/10/7 38/11/7
f 38/11/7 32/10/7 33/12/7 39/13/7
f 39/13/7 33/12/7 34/14/7 40/15/7
f 40/15/7 34/14/7 35/7/7 41/6/7
f 29/16/7 40/15/7 41/6/7 28/17/7
f 30/18/7 39/13/7 40/15/7 29/16/7
f 31/19/7 38/11/7 39/13/7 30/18/7
f 24/1/7 36/9/7 38/11/7 31/19/7
f 28/17/7 41/6/7 37/8/7 26/5/7
f 59/6/8 53/7/8 45/4/8 55/8/8
f 54/9/8 43/2/8 50/10/8 56/11/8
f 56/11/8 50/10/8 51/12/8 57/13/8
f 57/13/8 51/12/8 52/14/8 58/15/8
f 58/15/8 52/14/8 53/7/8 59/6/8
f 47/16/8 58/15/8 59/6/8 46/17/8
f 48/18/8 57/13/8 58/15/8 47/16/8
f 49/19/8 56/11/8 57/13/8 48/18/8
f 42/1/8 54/9/8 56/11/8 49/19/8
f 46/17/8 59/6/8 55/8/8 44/5/8
f 77/6/9 71/7/9 63/4/9 73/8/9
f 72/9/9 61/2/9 68/10/9 74/11/9
f 74/11/9 68/10/9 69/12/9 75/13/9
f 75/13/9 69/12/9 70/14/9 76/15/9
f 76/15/9 70/14/9 71/7/9 77/6/9
f 65/16/9 76/15/9 77/6/9 64/17/9
f 66/18/9 75/13/9 76/15/9 65/16/9
f 67/19/9 74/11/9 75/13/9 66/18/9
f 60/1/9 72/9/9 74/11/9 67/19/9
f 64/17/9 77/6/9 73/8/9 62/5/9
f 78/1/10 79/2/11 82/3/5
f 81/4/13 80/5/12 82/3/5
f 82/3/5 80/5/12 78/1/10
f 82/3/5 79/2/11 81/4/13
f 83/1/14 84/2/15 87/3/5
f 86/4/17 85/5/16 87/3/5
f 87/3/5 85/5/16 83/1/14
f 87/3/5 84/2/15 86/4/17
f 88/1/14 89/2/15 92/3/5
f 91/4/17 90/5/16 92/3/5
f 92/3/5 90/5/16 88/1/14
f 92/3/5 89/2/15 91/4/17
f 7/2/6 18/9/6 95/9/6 94/2/6
f 54/9/8 42/1/8 96/1/8 98/9/8
f 43/2/8 54/9/8 98/9/8 97/2/8
f 61/2/9 72/9/9 100/9/9 99/2/9
f 18/9/6 6/1/6 93/1/6 95/9/6
