# Blender 4.4.1
# www.blender.org
mtllib wheat_a.mtl
o wheat_a
v -0.705198 -0.002727 -0.000000
v 0.705198 -0.002727 -0.000000
v -0.705198 1.463780 0.000000
v -0.705198 0.730527 0.000000
v -0.235066 -0.002727 -0.000000
v 0.235066 -0.002727 -0.000000
v 0.705198 0.730527 0.000000
v 0.705198 1.463780 0.000000
v -0.235066 0.730527 0.000000
v -0.235066 1.463780 0.000000
v 0.235066 0.730527 0.000000
v 0.235066 1.463780 0.000000
v 0.000000 -0.002727 -0.705198
v -0.000000 -0.002727 0.705198
v 0.000000 1.463780 -0.705198
v 0.000000 0.730527 -0.705198
v 0.000000 -0.002727 -0.235066
v 0.000000 -0.002727 0.235066
v -0.000000 0.730527 0.705199
v -0.000000 1.463780 0.705198
v 0.000000 0.730527 -0.235066
v -0.000000 1.463780 -0.235066
v -0.000000 0.730527 0.235066
v -0.000000 1.463780 0.235066
v 0.507766 -0.002727 -0.489366
v -0.507766 -0.002727 0.489366
v 0.507766 1.463780 -0.489366
v 0.507766 0.730527 -0.489366
v 0.169255 -0.002727 -0.163122
v -0.169255 -0.002727 0.163122
v -0.507766 0.730527 0.489366
v -0.507766 1.463780 0.489366
v 0.169255 0.730527 -0.163122
v 0.169255 1.463780 -0.163122
v -0.169255 0.730527 0.163122
v -0.169255 1.463780 0.163122
v 0.586549 -0.002727 0.391491
v -0.586549 -0.002727 -0.391490
v 0.586549 1.463780 0.391490
v 0.586549 0.730527 0.391491
v 0.195516 -0.002727 0.130497
v -0.195516 -0.002727 -0.130497
v -0.586549 0.730527 -0.391490
v -0.586549 1.463780 -0.391490
v 0.195516 0.730527 0.130497
v 0.195516 1.463780 0.130497
v -0.195516 0.730527 -0.130497
v -0.195516 1.463780 -0.130497
v 0.705198 1.656670 0.000000
v -0.705198 1.656670 0.000000
v -0.235066 1.852723 0.000000
v 0.235066 1.852723 0.000000
v -0.586549 1.656670 -0.391491
v 0.586549 1.656670 0.391490
v 0.195516 1.852723 0.130497
v -0.195516 1.852723 -0.130497
v -0.000000 1.656670 0.705198
v -0.000000 1.656670 -0.705198
v -0.000000 1.852723 -0.235066
v -0.000000 1.852723 0.235066
v -0.507766 1.656670 0.489366
v 0.507766 1.656670 -0.489366
v 0.169255 1.852723 -0.163122
v -0.169255 1.852723 0.163122
vn -0.0000 -0.0000 1.0000
vn -1.0000 -0.0000 -0.0000
vn -0.6939 -0.0000 -0.7200
vn 0.5551 -0.0000 -0.8318
vt 0.000000 0.000000
vt 0.333333 0.000000
vt 0.333333 0.333333
vt 0.000000 0.333333
vt 0.333333 0.666667
vt 0.000000 0.666667
vt 0.666667 0.000000
vt 0.666667 0.333333
vt 0.666667 0.666667
vt 1.000000 0.000000
vt 1.000000 0.333333
vt 1.000000 0.666667
vt 0.666667 0.843478
vt 0.333333 0.843478
vt 0.000000 0.754354
vt 1.000000 0.754354
vt 0.666667 0.843478
vt 0.333333 0.843479
vt 0.000000 0.754354
vt 1.000000 0.754354
s 1
usemtl wheat_a
f 1/1/1 5/2/1 9/3/1 4/4/1
f 4/4/1 9/3/1 10/5/1 3/6/1
f 5/2/1 6/7/1 11/8/1 9/3/1
f 9/3/1 11/8/1 12/9/1 10/5/1
f 6/7/1 2/10/1 7/11/1 11/8/1
f 11/8/1 7/11/1 8/12/1 12/9/1
f 13/1/2 17/2/2 21/3/2 16/4/2
f 16/4/2 21/3/2 22/5/2 15/6/2
f 17/2/2 18/7/2 23/8/2 21/3/2
f 21/3/2 23/8/2 24/9/2 22/5/2
f 18/7/2 14/10/2 19/11/2 23/8/2
f 23/8/2 19/11/2 20/12/2 24/9/2
f 25/1/3 29/2/3 33/3/3 28/4/3
f 28/4/3 33/3/3 34/5/3 27/6/3
f 29/2/3 30/7/3 35/8/3 33/3/3
f 33/3/3 35/8/3 36/9/3 34/5/3
f 30/7/3 26/10/3 31/11/3 35/8/3
f 35/8/3 31/11/3 32/12/3 36/9/3
f 37/1/4 41/2/4 45/3/4 40/4/4
f 40/4/4 45/3/4 46/5/4 39/6/4
f 41/2/4 42/7/4 47/8/4 45/3/4
f 45/3/4 47/8/4 48/9/4 46/5/4
f 42/7/4 38/10/4 43/11/4 47/8/4
f 47/8/4 43/11/4 44/12/4 48/9/4
f 10/5/1 12/9/1 52/13/1 51/14/1
f 3/6/1 10/5/1 51/14/1 50/15/1
f 12/9/1 8/12/1 49/16/1 52/13/1
f 46/5/4 48/9/4 56/17/4 55/18/4
f 39/6/4 46/5/4 55/18/4 54/19/4
f 48/9/4 44/12/4 53/20/4 56/17/4
f 22/5/2 24/9/2 60/13/2 59/14/2
f 15/6/2 22/5/2 59/14/2 58/15/2
f 24/9/2 20/12/2 57/16/2 60/13/2
f 34/5/3 36/9/3 64/13/3 63/14/3
f 27/6/3 34/5/3 63/14/3 62/19/3
f 36/9/3 32/12/3 61/20/3 64/13/3
