# Blender 4.4.1
# www.blender.org
mtllib farm_house.mtl
o Cube.005
v -1.979240 0.000000 1.979240
v -1.979240 2.471179 1.979240
v -1.979240 0.000000 -1.979240
v -1.979240 2.471179 -1.979240
v 1.979240 0.000000 1.979240
v 1.979240 2.471179 1.979240
v 1.979240 0.000000 -1.979240
v 1.979240 2.471179 -1.979240
v -2.083740 2.471179 2.083740
v -2.083740 2.471179 -2.083740
v 2.083740 2.471179 -2.083740
v 2.083740 2.471179 2.083740
v -1.194179 2.998266 1.194179
v -1.194179 2.998266 -1.194179
v 1.194179 2.998266 -1.194179
v 1.194179 2.998266 1.194179
v -2.083740 2.591358 2.083740
v -2.083740 2.591358 -2.083740
v 2.083740 2.591358 -2.083740
v 2.083740 2.591358 2.083740
v -1.623314 2.789995 1.666576
v -1.651928 2.810567 -1.603999
v 1.668555 2.726121 -1.674364
v 1.606687 2.852564 1.611787
v -0.395793 1.853384 -1.979240
v 0.395793 1.853384 -1.979240
v 0.395742 1.853384 1.979240
v -0.395742 1.853384 1.979240
v 1.979240 1.853384 1.979240
v 1.979240 1.853384 -1.979240
v -1.979240 1.853384 -1.979240
v -1.979240 1.853384 1.979240
v -0.395790 0.000000 -1.979240
v 0.395790 0.000000 -1.979240
v 0.395794 2.471179 -1.979240
v -0.395794 2.471179 -1.979240
v 0.395740 0.000000 1.979240
v -0.395740 0.000000 1.979240
v -0.395743 2.471179 1.979240
v 0.395743 2.471179 1.979240
v 0.395808 2.471179 -2.083740
v -0.395808 2.471179 -2.083740
v -0.395750 2.471179 2.083740
v 0.395750 2.471179 2.083740
v 0.395832 2.591358 -2.083740
v -0.395832 2.591358 -2.083740
v -0.395763 2.591358 2.083740
v 0.395763 2.591358 2.083740
v -0.395476 2.998266 -1.194179
v 0.395476 2.998266 -1.194179
v 0.395485 2.998266 1.194179
v -0.395485 2.998266 1.194179
v -0.403920 2.813617 1.645892
v 0.387293 2.828943 1.632471
v 0.403930 2.758283 -1.647565
v -0.387303 2.778405 -1.630798
v -1.979240 2.162282 1.979240
v 0.395794 2.162282 -1.979240
v 1.979240 2.162282 1.979240
v -1.979240 2.162282 -1.979240
v 1.979240 2.162282 -1.979240
v -0.395742 2.162282 1.979240
v 0.395743 2.162282 1.979240
v -0.395794 2.162282 -1.979240
v -1.979240 0.000000 0.000000
v -1.979240 2.471179 0.000000
v 1.979240 0.000000 0.000000
v 1.979240 2.471179 0.000000
v -2.083740 2.471179 0.000000
v 2.083740 2.471179 0.000000
v -2.083740 2.591358 0.000000
v 2.083740 2.591358 0.000000
v -1.194179 2.998266 0.000000
v 1.194179 2.998266 0.000000
v 1.637621 2.789343 -0.031288
v -1.637621 2.800281 0.031289
v -1.979240 1.853384 0.000000
v 1.979240 1.853384 0.000000
v -0.395481 3.170148 0.000000
v 0.395481 3.170148 0.000000
v 1.979240 2.162282 0.000000
v -1.979240 2.162282 0.000000
v -1.979240 -2.025298 1.979240
v -1.979240 -2.025298 -1.979240
v 1.979240 -2.025298 1.979240
v 1.979240 -2.025298 -1.979240
v -0.395790 -2.025298 -1.979240
v 0.395790 -2.025298 -1.979240
v 0.395740 -2.025298 1.979240
v -0.395740 -2.025298 1.979240
v -1.979240 -2.025298 0.000000
v 1.979240 -2.025298 0.000000
vn -1.0000 -0.0000 -0.0000
vn -0.0000 -1.0000 -0.0000
vn 1.0000 -0.0000 -0.0000
vn -0.0032 0.9649 0.2627
vn -0.1886 0.9668 0.1727
vn -0.2117 0.9495 0.2315
vn -0.0054 0.9099 0.4148
vn -0.0000 -0.0000 1.0000
vn -0.0000 -0.0000 -1.0000
vn -0.1678 0.9664 -0.1948
vn 0.0037 0.9542 -0.2991
vn 0.0072 0.9086 -0.4176
vn -0.2280 0.9515 -0.2065
vn 0.0073 0.9116 -0.4111
vn 0.2009 0.9590 -0.1999
vn 0.1881 0.9661 -0.1766
vn 0.0076 0.9361 -0.3517
vn -0.4159 0.9094 0.0048
vn -0.2143 0.9515 -0.2206
vn -0.4251 0.9051 0.0041
vn 0.0071 0.9224 -0.3862
vn 0.4141 0.9101 -0.0139
vn 0.2254 0.9473 0.2275
vn 0.2382 0.9397 0.2454
vn 0.4053 0.9141 -0.0121
vn -0.0054 0.9100 0.4145
vn -0.0042 0.8836 0.4683
vn 0.1682 0.9741 0.1508
vn -0.0033 0.9677 0.2522
vn 0.3183 0.9480 -0.0078
vn -0.0661 0.9978 -0.0000
vn -0.3103 0.9506 0.0027
vn 0.0661 0.9978 -0.0000
vn -0.2275 0.9486 0.2202
vn -0.0044 0.8931 0.4498
vn 0.0035 0.9507 -0.3100
vn 0.2032 0.9551 -0.2156
vt 0.717782 0.638672
vt 0.750968 0.638672
vt 0.750968 0.771415
vt 0.717782 0.771415
vt 0.625000 0.500000
vt 0.625000 0.399997
vt 0.625000 0.398744
vt 0.598132 0.632812
vt 0.630383 0.632812
vt 0.630383 0.761816
vt 0.598132 0.761816
vt 0.625000 1.000000
vt 0.625000 0.899993
vt 0.625000 0.898740
vt 0.704099 0.453890
vt 0.616766 0.454015
vt 0.569413 0.237457
vt 0.703156 0.237021
vt 0.658693 0.547466
vt 0.698729 0.547466
vt 0.698729 0.675588
vt 0.658693 0.675588
vt 0.544295 0.736328
vt 0.544295 0.528044
vt 0.556308 0.528044
vt 0.556308 0.736328
vt 0.625000 0.625000
vt 0.625000 0.125000
vt 0.625000 0.000000
vt 0.520156 0.944613
vt 0.520156 0.775892
vt 0.532169 0.775894
vt 0.532169 0.944613
vt 0.877921 0.454237
vt 0.790588 0.453836
vt 0.789687 0.246108
vt 0.926821 0.240291
vt 0.544239 0.736328
vt 0.544239 0.944612
vt 0.532226 0.944612
vt 0.532226 0.736328
vt 0.519485 0.029228
vt 0.704051 0.029453
vt 0.556364 0.944612
vt 0.556364 0.775886
vt 0.568377 0.775887
vt 0.568377 0.944612
vt 0.750775 0.242575
vt 0.747357 0.030093
vt 0.790609 0.029430
vt 0.975185 0.029228
vt 0.747341 0.454019
vt 0.703827 0.392349
vt 0.574236 0.392349
vt 0.574236 0.160576
vt 0.798320 0.775603
vt 0.798320 0.506447
vt 0.977758 0.506447
vt 0.977758 0.775603
vt 0.961754 0.392349
vt 0.832163 0.392349
vt 0.961754 0.160576
vt 0.520156 0.696764
vt 0.520156 0.528044
vt 0.532169 0.528044
vt 0.532169 0.696762
vt 0.556364 0.696770
vt 0.556364 0.528044
vt 0.568377 0.528044
vt 0.568377 0.696769
vt 0.625000 0.850007
vt 0.625000 0.750000
vt 0.625000 0.851260
vt 0.625000 0.350003
vt 0.625000 0.250000
vt 0.625000 0.351256
vt 0.659284 0.548959
vt 0.698138 0.548959
vt 0.698138 0.673300
vt 0.659284 0.673300
vt 0.580785 0.513584
vt 0.639919 0.513584
vt 0.639919 0.702819
vt 0.580785 0.702819
vt 0.703826 0.160576
vt 0.832164 0.160576
vt 0.578790 0.999997
vt 0.578791 0.776018
vt 0.676162 0.776018
vt 0.676162 0.999997
vt 0.579812 0.999195
vt 0.579812 0.777203
vt 0.675148 0.777203
vt 0.675148 0.999195
vt 0.649338 0.515577
vt 0.708084 0.515577
vt 0.708084 0.703567
vt 0.649338 0.703567
vt 0.567237 0.795345
vt 0.507807 0.795345
vt 0.507807 0.700272
vt 0.567237 0.700272
vt 0.570838 0.797067
vt 0.510558 0.797067
vt 0.510558 0.700646
vt 0.570838 0.700646
vt 0.798321 0.506447
vt 0.977758 0.506447
vt 0.977758 0.506447
vt 0.798320 0.506447
vt 0.713835 0.775603
vt 0.713835 0.506447
vt 0.996361 0.506447
vt 0.996361 0.775603
vt 0.626744 0.895343
vt 0.588906 0.895343
vt 0.588906 0.845550
vt 0.626744 0.845550
vt 0.626820 0.895291
vt 0.588594 0.895291
vt 0.588594 0.845298
vt 0.626820 0.845298
vt 0.507807 0.510091
vt 0.567237 0.510091
vt 0.567237 0.985526
vt 0.507807 0.985526
vt 0.570838 0.989974
vt 0.510558 0.989974
vt 0.510558 0.507739
vt 0.570838 0.507739
vt 0.512269 0.754191
vt 0.570157 0.754191
vt 0.570157 0.985744
vt 0.512269 0.985744
vt 0.512105 0.752500
vt 0.570321 0.752500
vt 0.570321 0.985362
vt 0.512105 0.985362
vt 0.512105 0.519637
vt 0.570321 0.519637
vt 0.512269 0.522638
vt 0.570157 0.522638
vt 0.832162 0.160576
vt 0.832163 0.392349
vt 0.703827 0.392349
vt 0.703828 0.160576
vt 0.544239 0.528044
vt 0.532226 0.528044
vt 0.544295 0.944612
vt 0.556308 0.944612
vt 0.598132 0.503809
vt 0.630383 0.503809
vt 0.717782 0.505929
vt 0.750968 0.505929
vt 0.595005 0.275336
vt 0.595005 0.198994
vt 0.692650 0.198994
vt 0.692650 0.275336
vt 0.788184 0.182132
vt 0.692759 0.182132
vt 0.692759 0.084487
vt 0.788184 0.084487
vt 0.883608 0.182132
vt 0.883608 0.084487
vt 0.790404 0.389949
vt 0.790404 0.466294
vt 0.692759 0.466294
vt 0.692759 0.389949
vt 0.595005 0.160830
vt 0.692650 0.160830
vt 0.790404 0.351790
vt 0.692759 0.351790
vt 0.595005 0.084487
vt 0.692650 0.084487
vt 0.595005 0.370870
vt 0.595005 0.275445
vt 0.692650 0.275445
vt 0.692650 0.370870
vt 0.790404 0.275445
vt 0.692759 0.275445
vt 0.595005 0.466294
vt 0.692650 0.466294
s 1
usemtl Material
f 82/1/1 66/2/1 4/3/1 60/4/1
f 8/5/2 35/6/2 41/7/2 11/5/2
f 81/8/3 68/9/3 6/10/3 59/11/3
f 2/12/2 39/13/2 43/14/2 9/12/2
f 52/15/4 13/16/5 21/17/6 53/18/7
f 59/19/8 6/20/8 40/21/8 63/22/8
f 70/23/3 11/24/3 19/25/3 72/26/3
f 68/27/2 8/5/2 11/5/2 70/27/2
f 66/28/2 2/29/2 9/29/2 69/28/2
f 11/30/9 41/31/9 45/32/9 19/33/9
f 14/34/10 49/35/11 56/36/12 22/37/13
f 69/38/1 9/39/1 17/40/1 71/41/1
f 55/18/14 23/17/15 19/42/16 45/43/17
f 9/44/8 43/45/8 47/46/8 17/47/8
f 76/48/18 22/17/13 18/42/19 71/49/20
f 22/37/13 56/36/12 46/50/21 18/51/19
f 75/48/22 24/17/23 20/42/24 72/49/25
f 24/37/23 54/36/26 48/50/27 20/51/24
f 16/34/28 51/35/29 54/36/26 24/37/23
f 74/52/30 16/16/28 24/17/23 75/48/22
f 79/53/31 73/54/32 13/55/5
f 73/52/32 14/16/10 22/17/13 76/48/18
f 3/56/9 31/57/9 25/58/9 33/59/9
f 74/60/30 80/61/33 16/62/28
f 53/18/7 21/17/6 17/42/34 47/43/35
f 42/63/9 10/64/9 18/65/9 46/66/9
f 44/67/8 12/68/8 20/69/8 48/70/8
f 50/15/36 15/16/37 23/17/15 55/18/14
f 40/71/2 6/72/2 12/72/2 44/73/2
f 36/74/2 4/75/2 10/75/2 42/76/2
f 62/77/8 39/78/8 2/79/8 57/80/8
f 58/81/9 35/82/9 8/83/9 61/84/9
f 50/15/36 55/18/14 56/36/12 49/35/11
f 52/15/4 53/18/7 54/36/26 51/35/29
f 53/18/7 47/43/35 48/50/27 54/36/26
f 55/18/14 45/43/17 46/50/21 56/36/12
f 42/63/9 46/66/9 45/32/9 41/31/9
f 44/67/8 48/70/8 47/46/8 43/45/8
f 79/53/31 52/85/4 51/86/29 80/61/33
f 40/71/2 44/73/2 43/14/2 39/13/2
f 36/74/2 42/76/2 41/7/2 35/6/2
f 28/87/8 38/88/8 37/89/8 27/90/8
f 26/91/9 34/92/9 33/93/9 25/94/9
f 60/95/9 4/96/9 36/97/9 64/98/9
f 58/99/9 26/100/9 25/101/9 64/102/9
f 62/103/8 28/104/8 27/105/8 63/106/8
f 34/56/9 26/107/9 30/108/9 7/59/9
f 38/56/8 28/57/8 32/109/8 1/59/8
f 5/56/8 29/110/8 27/108/8 37/59/8
f 67/111/3 78/112/3 29/113/3 5/114/3
f 65/111/1 77/112/1 31/113/1 3/114/1
f 39/115/8 62/116/8 63/117/8 40/118/8
f 35/119/9 58/120/9 64/121/9 36/122/9
f 31/123/9 60/124/9 64/102/9 25/101/9
f 26/100/9 58/99/9 61/125/9 30/126/9
f 28/104/8 62/103/8 57/127/8 32/128/8
f 29/129/8 59/130/8 63/106/8 27/105/8
f 78/131/3 81/132/3 59/133/3 29/134/3
f 77/135/1 82/136/1 60/137/1 31/138/1
f 32/139/1 57/140/1 82/136/1 77/135/1
f 30/141/3 61/142/3 81/132/3 78/131/3
f 1/111/1 32/112/1 77/113/1 65/114/1
f 7/111/3 30/112/3 78/113/3 67/114/3
f 49/143/11 79/144/31 80/145/33 50/146/36
f 15/55/37 80/145/33 74/54/30
f 13/34/5 73/52/32 76/48/18 21/37/6
f 49/143/11 14/62/10 79/144/31
f 15/34/37 74/52/30 75/48/22 23/37/15
f 23/37/15 75/48/22 72/49/25 19/51/16
f 21/37/6 76/48/18 71/49/20 17/51/34
f 10/147/1 69/38/1 71/41/1 18/148/1
f 4/75/2 66/28/2 69/28/2 10/75/2
f 6/72/2 68/27/2 70/27/2 12/72/2
f 12/149/3 70/23/3 72/26/3 20/150/3
f 61/151/3 8/152/3 68/9/3 81/8/3
f 57/153/1 2/154/1 66/2/1 82/1/1
f 3/155/9 33/156/9 87/157/9 84/158/9
f 67/159/3 5/160/3 85/161/3 92/162/3
f 7/163/3 67/159/3 92/162/3 86/164/3
f 38/165/8 1/166/8 83/167/8 90/168/8
f 33/156/9 34/169/9 88/170/9 87/157/9
f 37/171/8 38/165/8 90/168/8 89/172/8
f 34/169/9 7/173/9 86/174/9 88/170/9
f 65/175/1 3/176/1 84/177/1 91/178/1
f 5/179/8 37/171/8 89/172/8 85/180/8
f 1/181/1 65/175/1 91/178/1 83/182/1
f 16/62/28 80/61/33 51/86/29
f 13/55/5 52/85/4 79/53/31
f 79/144/31 14/62/10 73/60/32
f 80/145/33 15/55/37 50/146/36
