# Blender 4.4.1
# www.blender.org
mtllib grannery.mtl
o Cube.002
v -1.128449 0.125070 1.128449
v -1.128449 1.781006 1.128449
v -1.128449 0.125070 -1.128449
v -1.128449 1.781006 -1.128449
v 1.128449 0.125070 1.128449
v 1.128449 1.781006 1.128449
v 1.128449 0.125070 -1.128449
v 1.128449 1.781006 -1.128449
v -1.218645 1.781006 1.218645
v -1.218645 1.781006 -1.218645
v 1.218645 1.781006 -1.218645
v 1.218645 1.781006 1.218645
v -1.218645 1.855717 1.218645
v -1.218645 1.855717 -1.218645
v 1.218645 1.855717 -1.218645
v 1.218645 1.855717 1.218645
v -0.131019 2.247526 0.131019
v -0.131019 2.247526 -0.131019
v 0.131019 2.247526 -0.131019
v 0.131019 2.247526 0.131019
v -0.131019 2.267180 0.131019
v -0.131019 2.267180 -0.131019
v 0.131019 2.267180 -0.131019
v 0.131019 2.267180 0.131019
v 0.899199 1.969548 -0.870091
v 0.427635 2.116923 -0.427635
v 0.427635 2.116923 0.427635
v 0.841675 2.037706 0.837879
v -0.884055 1.959669 0.903306
v -0.427635 2.116923 0.427635
v -0.427635 2.116923 -0.427635
v -0.856819 1.978357 -0.871095
v -0.341329 1.555233 1.128449
v 0.341329 1.555233 1.128449
v -0.341329 1.555233 1.088681
v 0.341329 1.555233 1.088681
v 0.341329 0.350843 1.088681
v -0.341329 0.350843 1.088681
v -0.341329 0.350843 1.128449
v 0.341329 0.350843 1.128449
v 0.341329 -0.343950 2.222152
v 0.341329 -0.374656 2.190458
v -0.341329 -0.343950 2.222152
v -0.341329 -0.374656 2.190458
v -0.341329 0.350843 1.128449
v 0.341329 0.350843 1.128449
v 0.341329 0.306714 1.128449
v -0.341329 0.306714 1.128449
v 0.341329 -0.343950 2.222152
v 0.341329 -0.374656 2.190458
v -0.341329 -0.343950 2.222152
v -0.341329 -0.374656 2.190458
v -1.112277 -0.342901 1.117772
v -1.112277 0.125070 1.117772
v -1.112277 -0.342901 0.993878
v -1.112277 0.125070 0.993878
v -0.988383 -0.342901 1.117772
v -0.988383 0.125070 1.117772
v -0.988383 -0.342901 0.993878
v -0.988383 0.125070 0.993878
v 1.112277 -0.342901 1.117772
v 1.112277 0.125070 1.117772
v 1.112277 -0.342901 0.993878
v 1.112277 0.125070 0.993878
v 0.988383 -0.342901 1.117772
v 0.988383 0.125070 1.117772
v 0.988383 -0.342901 0.993878
v 0.988383 0.125070 0.993878
v -1.112277 -0.342901 -1.117772
v -1.112277 0.125070 -1.117772
v -1.112277 -0.342901 -0.993878
v -1.112277 0.125070 -0.993878
v -0.988383 -0.342901 -1.117772
v -0.988383 0.125070 -1.117772
v -0.988383 -0.342901 -0.993878
v -0.988383 0.125070 -0.993878
v 1.112277 -0.342901 -1.117772
v 1.112277 0.125070 -1.117772
v 1.112277 -0.342901 -0.993878
v 1.112277 0.125070 -0.993878
v 0.988383 -0.342901 -1.117772
v 0.988383 0.125070 -1.117772
v 0.988383 -0.342901 -0.993878
v 0.988383 0.125070 -0.993878
v -0.522595 -0.342901 1.115941
v -0.522595 0.125070 1.115941
v -0.522595 -0.342901 0.992046
v -0.522595 0.125070 0.992046
v -0.398700 -0.342901 1.115941
v -0.398700 0.125070 1.115941
v -0.398700 -0.342901 0.992046
v -0.398700 0.125070 0.992046
v 0.522595 -0.342901 1.115941
v 0.522595 0.125070 1.115941
v 0.522595 -0.342901 0.992046
v 0.522595 0.125070 0.992046
v 0.398700 -0.342901 1.115941
v 0.398700 0.125070 1.115941
v 0.398700 -0.342901 0.992046
v 0.398700 0.125070 0.992046
v -0.522595 -0.342901 -1.115941
v -0.522595 0.125070 -1.115941
v -0.522595 -0.342901 -0.992046
v -0.522595 0.125070 -0.992046
v -0.398700 -0.342901 -1.115941
v -0.398700 0.125070 -1.115941
v -0.398700 -0.342901 -0.992046
v -0.398700 0.125070 -0.992046
v 0.522595 -0.342901 -1.115941
v 0.522595 0.125070 -1.115941
v 0.522595 -0.342901 -0.992046
v 0.522595 0.125070 -0.992046
v 0.398700 -0.342901 -1.115941
v 0.398700 0.125070 -1.115941
v 0.398700 -0.342901 -0.992046
v 0.398700 0.125070 -0.992046
v -1.112277 -0.342901 0.505186
v -1.112277 0.125070 0.505186
v -1.112277 -0.342901 0.381292
v -1.112277 0.125070 0.381292
v -0.988383 -0.342901 0.505186
v -0.988383 0.125070 0.505186
v -0.988383 -0.342901 0.381292
v -0.988383 0.125070 0.381292
v 1.112277 -0.342901 0.505186
v 1.112277 0.125070 0.505186
v 1.112277 -0.342901 0.381292
v 1.112277 0.125070 0.381292
v 0.988383 -0.342901 0.505186
v 0.988383 0.125070 0.505186
v 0.988383 -0.342901 0.381292
v 0.988383 0.125070 0.381292
v -1.112277 -0.342901 -0.505186
v -1.112277 0.125070 -0.505186
v -1.112277 -0.342901 -0.381292
v -1.112277 0.125070 -0.381292
v -0.988383 -0.342901 -0.505186
v -0.988383 0.125070 -0.505186
v -0.988383 -0.342901 -0.381292
v -0.988383 0.125070 -0.381292
v 1.112277 -0.342901 -0.505186
v 1.112277 0.125070 -0.505186
v 1.112277 -0.342901 -0.381292
v 1.112277 0.125070 -0.381292
v 0.988383 -0.342901 -0.505186
v 0.988383 0.125070 -0.505186
v 0.988383 -0.342901 -0.381292
v 0.988383 0.125070 -0.381292
vn -0.0000 -0.0000 1.0000
vn -0.0000 -1.0000 -0.0000
vn 0.1390 0.9798 0.1440
vn 0.1478 0.9726 -0.1794
vn 0.2102 0.9548 -0.2102
vn 0.2102 0.9548 0.2102
vn 1.0000 -0.0000 -0.0000
vn -1.0000 -0.0000 -0.0000
vn -0.1745 0.9700 -0.1691
vn -0.1837 0.9712 0.1520
vn -0.2102 0.9548 0.2102
vn -0.2102 0.9548 -0.2102
vn -0.0000 -0.0000 -1.0000
vn -0.0000 1.0000 -0.0000
vn 0.1929 0.9647 -0.1793
vn -0.1615 0.9738 -0.1601
vn -0.1568 0.9740 -0.1636
vn 0.1885 0.9679 -0.1665
vn -0.1706 0.9668 0.1904
vn 0.1968 0.9610 0.1943
vn 0.1757 0.9692 0.1728
vn -0.1650 0.9690 0.1840
vn -0.0000 -0.7182 0.6958
vn -0.0000 0.8441 0.5362
vt 0.579496 0.512402
vt 0.726107 0.547530
vt 0.726107 0.734138
vt 0.579496 0.769607
vt 0.996053 0.769607
vt 0.852256 0.734138
vt 0.852256 0.547530
vt 0.996053 0.512402
vt 0.622596 0.701395
vt 0.768054 0.701395
vt 0.773867 0.707208
vt 0.616783 0.707208
vt 0.768054 0.555937
vt 0.622596 0.555937
vt 0.616783 0.550124
vt 0.773867 0.550124
vt 0.596056 0.766728
vt 0.596056 0.509207
vt 0.603950 0.509207
vt 0.603950 0.766728
vt 0.672750 0.359703
vt 0.840166 0.358050
vt 0.782406 0.490274
vt 0.731113 0.490781
vt 0.603986 0.766728
vt 0.603986 0.509207
vt 0.611880 0.509207
vt 0.611880 0.766728
vt 0.611916 0.766728
vt 0.611916 0.509207
vt 0.619810 0.509207
vt 0.619810 0.766728
vt 0.756583 0.585624
vt 0.664222 0.585624
vt 0.664222 0.578697
vt 0.756583 0.578697
vt 0.667024 0.359202
vt 0.838464 0.359208
vt 0.779006 0.492022
vt 0.726480 0.492020
vt 0.619846 0.766728
vt 0.619846 0.509207
vt 0.627740 0.509207
vt 0.627740 0.766728
vt 0.664451 0.350698
vt 0.830422 0.352383
vt 0.772558 0.484041
vt 0.721708 0.483524
vt 0.668156 0.359409
vt 0.834253 0.359436
vt 0.776644 0.494494
vt 0.725756 0.494485
vt 0.975411 0.585624
vt 0.883049 0.585624
vt 0.883049 0.578697
vt 0.975411 0.578697
vt 0.711282 0.707270
vt 0.711282 0.562464
vt 0.856089 0.562464
vt 0.856089 0.707270
vt 0.840332 0.535980
vt 0.840332 0.628341
vt 0.833405 0.628341
vt 0.833405 0.535980
vt 0.750171 0.535980
vt 0.750171 0.628341
vt 0.743244 0.628341
vt 0.743244 0.535980
vt 0.514546 0.012233
vt 0.987877 0.012233
vt 0.917609 0.165827
vt 0.576580 0.165050
vt 0.511215 0.010285
vt 0.984194 0.010284
vt 0.911161 0.182714
vt 0.576145 0.145766
vt 0.508471 0.017805
vt 0.997030 0.017805
vt 0.933820 0.161387
vt 0.578134 0.174379
vt 0.517609 0.019047
vt 0.994706 0.019047
vt 0.926477 0.156802
vt 0.592053 0.189257
vt 0.549947 0.508788
vt 0.549947 0.995118
vt 0.533889 0.995118
vt 0.533889 0.508788
vt 0.580661 0.847148
vt 0.580661 0.781826
vt 0.672212 0.781826
vt 0.672212 0.847148
vt 0.534698 0.823044
vt 0.534698 0.544143
vt 0.550945 0.544143
vt 0.550945 0.823044
vt 0.552482 0.539250
vt 0.552482 0.870906
vt 0.533161 0.870906
vt 0.533161 0.539250
vt 0.530693 0.892972
vt 0.530693 0.567965
vt 0.541424 0.567965
vt 0.541424 0.892972
vt 0.109565 0.677707
vt 0.104814 0.682514
vt 0.044491 0.690062
vt 0.039435 0.684911
vt 0.848745 0.512145
vt 0.848745 0.776918
vt 0.709249 0.776918
vt 0.709249 0.512145
vt 0.856357 0.516980
vt 0.857514 0.774816
vt 0.700480 0.774816
vt 0.701638 0.516980
vt 0.503991 0.885843
vt 0.503991 0.635843
vt 0.574291 0.635843
vt 0.574291 0.885843
vt 0.503991 0.635843
vt 0.574291 0.635843
vt 0.574291 0.885843
s 1
usemtl Material
f 1/1/1 39/2/1 33/3/1 2/4/1
f 6/5/1 34/6/1 40/7/1 5/8/1
f 6/9/2 8/10/2 11/11/2 12/12/2
f 4/13/2 2/14/2 9/15/2 10/16/2
f 9/17/1 12/18/1 16/19/1 13/20/1
f 27/21/3 26/22/4 19/23/5 20/24/6
f 8/10/2 4/13/2 10/16/2 11/11/2
f 12/25/7 11/26/7 15/27/7 16/28/7
f 10/29/8 9/30/8 13/31/8 14/32/8
f 20/33/7 19/34/7 23/35/7 24/36/7
f 31/37/9 30/38/10 17/39/11 18/40/12
f 11/41/13 10/42/13 14/43/13 15/44/13
f 30/45/10 27/46/3 20/47/6 17/48/11
f 26/49/4 31/50/9 18/51/12 19/52/5
f 18/53/8 17/54/8 21/55/8 22/56/8
f 23/57/14 22/58/14 21/59/14 24/60/14
f 17/61/1 20/62/1 24/63/1 21/64/1
f 19/65/13 18/66/13 22/67/13 23/68/13
f 15/69/15 14/70/16 32/71/17 25/72/18
f 25/72/18 32/71/17 31/50/9 26/49/4
f 13/73/19 16/74/20 28/75/21 29/76/22
f 14/77/16 13/78/19 29/79/22 32/80/17
f 32/80/17 29/79/22 30/38/10 31/37/9
f 16/81/20 15/82/15 25/83/18 28/84/21
f 28/84/21 25/83/18 26/22/4 27/21/3
f 1/8/8 2/5/8 4/4/8 3/1/8
f 5/8/1 40/7/1 39/2/1 1/1/1
f 6/5/1 2/4/1 33/3/1 34/6/1
f 3/8/13 4/5/13 8/4/13 7/1/13
f 40/85/8 34/86/8 36/87/8 37/88/8
f 35/89/1 38/90/1 37/91/1 36/92/1
f 39/93/14 40/94/14 37/95/14 38/96/14
f 34/97/2 33/98/2 35/99/2 36/100/2
f 33/101/7 39/102/7 38/103/7 35/104/7
f 29/76/22 28/75/21 27/46/3 30/45/10
f 6/4/7 5/1/7 7/8/7 8/5/7
f 2/14/2 6/9/2 12/12/2 9/15/2
f 42/105/23 41/106/23 43/107/23 44/108/23
f 45/109/24 51/110/24 49/111/24 46/112/24
f 48/113/8 52/114/8 51/110/8 45/109/8
f 46/112/7 49/111/7 50/115/7 47/116/7
f 53/117/8 54/118/8 56/119/8 55/120/8
f 55/117/13 56/121/13 60/119/13 59/120/13
f 59/117/7 60/121/7 58/119/7 57/120/7
f 57/117/1 58/121/1 54/122/1 53/123/1
f 61/117/7 63/120/7 64/119/7 62/118/7
f 63/117/13 67/120/13 68/119/13 64/121/13
f 67/117/8 65/120/8 66/119/8 68/121/8
f 65/117/1 61/123/1 62/122/1 66/121/1
f 69/117/8 71/120/8 72/119/8 70/118/8
f 71/117/1 75/120/1 76/119/1 72/121/1
f 75/117/7 73/120/7 74/119/7 76/121/7
f 73/117/13 69/123/13 70/122/13 74/121/13
f 77/117/7 78/118/7 80/119/7 79/120/7
f 79/117/1 80/121/1 84/119/1 83/120/1
f 83/117/8 84/121/8 82/119/8 81/120/8
f 81/117/13 82/121/13 78/122/13 77/123/13
f 85/117/8 86/118/8 88/119/8 87/120/8
f 87/117/13 88/121/13 92/119/13 91/120/13
f 91/117/7 92/121/7 90/119/7 89/120/7
f 89/117/1 90/121/1 86/122/1 85/123/1
f 93/117/7 95/120/7 96/119/7 94/118/7
f 95/117/13 99/120/13 100/119/13 96/121/13
f 99/117/8 97/120/8 98/119/8 100/121/8
f 97/117/1 93/123/1 94/122/1 98/121/1
f 101/117/8 103/120/8 104/119/8 102/118/8
f 103/117/1 107/120/1 108/119/1 104/121/1
f 107/117/7 105/120/7 106/119/7 108/121/7
f 105/117/13 101/123/13 102/122/13 106/121/13
f 109/117/7 110/118/7 112/119/7 111/120/7
f 111/117/1 112/121/1 116/119/1 115/120/1
f 115/117/8 116/121/8 114/119/8 113/120/8
f 113/117/13 114/121/13 110/122/13 109/123/13
f 117/117/8 118/118/8 120/119/8 119/120/8
f 119/117/13 120/121/13 124/119/13 123/120/13
f 123/117/7 124/121/7 122/119/7 121/120/7
f 121/117/1 122/121/1 118/122/1 117/123/1
f 125/117/7 127/120/7 128/119/7 126/118/7
f 127/117/13 131/120/13 132/119/13 128/121/13
f 131/117/8 129/120/8 130/119/8 132/121/8
f 129/117/1 125/123/1 126/122/1 130/121/1
f 133/117/8 135/120/8 136/119/8 134/118/8
f 135/117/1 139/120/1 140/119/1 136/121/1
f 139/117/7 137/120/7 138/119/7 140/121/7
f 137/117/13 133/123/13 134/122/13 138/121/13
f 141/117/7 142/118/7 144/119/7 143/120/7
f 143/117/1 144/121/1 148/119/1 147/120/1
f 147/117/8 148/121/8 146/119/8 145/120/8
f 145/117/13 146/121/13 142/122/13 141/123/13
