# Blender 4.4.1
# www.blender.org
mtllib stockpile.mtl
o Cube.003
v -5.740776 0.000000 3.015057
v -5.740776 2.837793 3.015057
v -5.852012 2.837793 3.073479
v -5.852012 3.013832 3.073479
v -2.637825 3.604361 1.385386
v 0.000000 1.974955 3.015057
v 0.000000 2.837793 3.073479
v 0.000000 3.013832 3.073479
v 0.000000 3.527671 1.385386
v -3.839217 3.411746 2.010430
v 0.000000 3.432817 2.103130
v -4.856566 3.152523 2.603413
v 0.000000 3.304856 2.641232
v -5.740776 0.000000 0.000000
v -5.740776 2.837793 0.000000
v -5.852012 2.837793 0.000000
v -5.852012 3.013832 0.000000
v -2.637825 3.584384 0.000000
v 0.000000 3.691963 0.000000
v -0.663225 0.000000 0.000000
v -3.947837 3.376209 0.000000
v -4.957350 3.157589 0.000000
v -0.663225 1.974955 3.015057
v -1.318912 2.837793 3.073479
v -1.318912 3.013832 3.073479
v -1.318912 3.658692 1.385386
v -0.663225 0.000000 3.015057
v -1.322113 3.456864 2.111883
v -1.316042 3.300270 2.637960
v -1.318912 3.734483 0.000000
v -1.318912 0.000000 3.015057
v 0.000000 1.974955 0.000000
v 0.000000 2.837793 3.015057
v -1.318912 2.837793 3.015057
v -0.663225 1.974955 0.000000
v -3.529844 2.837793 3.015057
v -3.585462 2.837793 3.073479
v -3.585462 3.013832 3.073479
v -1.978368 3.631526 1.385386
v -2.580665 3.434305 2.061157
v -3.086304 3.226396 2.620687
v -3.529844 0.000000 3.015057
v -1.978368 3.659433 0.000000
v -5.740776 0.000000 1.507529
v 0.000000 3.609817 0.692693
v -5.740776 2.837793 1.507529
v -5.852012 2.837793 1.536739
v -5.852012 3.013832 1.536739
v -2.637825 3.594373 0.692693
v -3.893527 3.393977 1.005215
v -4.906958 3.155056 1.301706
v -1.318912 3.696587 0.692693
v -1.978368 3.645480 0.692693
v 5.740776 0.000000 3.015057
v 5.740776 2.837793 3.015057
v 5.852012 2.837793 3.073479
v 5.852012 3.013832 3.073479
v 2.637825 3.604361 1.385386
v 3.839217 3.411746 2.010430
v 4.856566 3.152523 2.603413
v 5.740776 0.000000 0.000000
v 5.740776 2.837793 0.000000
v 5.852012 2.837793 0.000000
v 5.852012 3.013832 0.000000
v 2.637825 3.584384 0.000000
v 0.663225 0.000000 0.000000
v 3.947837 3.376209 0.000000
v 4.957350 3.157589 0.000000
v 0.663225 1.974955 3.015057
v 1.318912 2.837793 3.073479
v 1.318912 3.013832 3.073479
v 1.318912 3.658692 1.385386
v 0.663225 0.000000 3.015057
v 1.322113 3.456864 2.111883
v 1.316042 3.300270 2.637960
v 1.318912 3.734483 0.000000
v 1.318912 0.000000 3.015057
v 1.318912 2.837793 3.015057
v 0.663225 1.974955 0.000000
v 3.529844 2.837793 3.015057
v 3.585462 2.837793 3.073479
v 3.585462 3.013832 3.073479
v 1.978368 3.631526 1.385386
v 2.580665 3.434305 2.061157
v 3.086304 3.226396 2.620687
v 3.529844 0.000000 3.015057
v 1.978368 3.659433 0.000000
v 5.740776 0.000000 1.507529
v 5.740776 2.837793 1.507529
v 5.852012 2.837793 1.536739
v 5.852012 3.013832 1.536739
v 2.637825 3.594373 0.692693
v 3.893527 3.393977 1.005215
v 4.906958 3.155056 1.301706
v 1.318912 3.696587 0.692693
v 1.978368 3.645480 0.692693
v -5.740776 0.000000 -3.015057
v -5.740776 2.837793 -3.015057
v -5.852012 2.837793 -3.073479
v -5.852012 3.013832 -3.073479
v -2.637825 3.604361 -1.385386
v 0.000000 1.974955 -3.015057
v 0.000000 2.837793 -3.073479
v 0.000000 3.013832 -3.073479
v 0.000000 3.527671 -1.385386
v -3.839217 3.411746 -2.010430
v 0.000000 3.432817 -2.103130
v -4.856566 3.152523 -2.603413
v 0.000000 3.304856 -2.641232
v -0.663225 1.974955 -3.015057
v -1.318912 2.837793 -3.073479
v -1.318912 3.013832 -3.073479
v -1.318912 3.658692 -1.385386
v -0.663225 0.000000 -3.015057
v -1.322113 3.456864 -2.111883
v -1.316042 3.300270 -2.637960
v -1.318912 0.000000 -3.015057
v 0.000000 2.837793 -3.015057
v -1.318912 2.837793 -3.015057
v -3.529844 2.837793 -3.015057
v -3.585462 2.837793 -3.073479
v -3.585462 3.013832 -3.073479
v -1.978368 3.631526 -1.385386
v -2.580665 3.434305 -2.061157
v -3.086304 3.226396 -2.620687
v -3.529844 0.000000 -3.015057
v -5.740776 0.000000 -1.507529
v 0.000000 3.609817 -0.692693
v -5.740776 2.837793 -1.507529
v -5.852012 2.837793 -1.536739
v -5.852012 3.013832 -1.536739
v -2.637825 3.594373 -0.692693
v -3.893527 3.393977 -1.005215
v -4.906958 3.155056 -1.301706
v -1.318912 3.696587 -0.692693
v -1.978368 3.645480 -0.692693
v 5.740776 0.000000 -3.015057
v 5.740776 2.837793 -3.015057
v 5.852012 2.837793 -3.073479
v 5.852012 3.013832 -3.073479
v 2.637825 3.604361 -1.385386
v 3.839217 3.411746 -2.010430
v 4.856566 3.152523 -2.603413
v 0.663225 1.974955 -3.015057
v 1.318912 2.837793 -3.073479
v 1.318912 3.013832 -3.073479
v 1.318912 3.658692 -1.385386
v 0.663225 0.000000 -3.015057
v 1.322113 3.456864 -2.111883
v 1.316042 3.300270 -2.637960
v 1.318912 0.000000 -3.015057
v 1.318912 2.837793 -3.015057
v 3.529844 2.837793 -3.015057
v 3.585462 2.837793 -3.073479
v 3.585462 3.013832 -3.073479
v 1.978368 3.631526 -1.385386
v 2.580665 3.434305 -2.061157
v 3.086304 3.226396 -2.620687
v 3.529844 0.000000 -3.015057
v 5.740776 0.000000 -1.507529
v 5.740776 2.837793 -1.507529
v 5.852012 2.837793 -1.536739
v 5.852012 3.013832 -1.536739
v 2.637825 3.594373 -0.692693
v 3.893527 3.393977 -1.005215
v 4.906958 3.155056 -1.301706
v 1.318912 3.696587 -0.692693
v 1.978368 3.645480 -0.692693
vn -0.0000 -0.0000 1.0000
vn -0.0000 -1.0000 -0.0000
vn -1.0000 -0.0000 -0.0000
vn -0.0772 0.9968 0.0201
vn -0.1187 0.9929 -0.0041
vn -0.0818 0.9914 0.1025
vn -0.0459 0.9892 0.1395
vn -0.1939 0.9810 -0.0036
vn -0.1266 0.9792 0.1583
vn -0.0010 0.9666 0.2564
vn -0.0000 0.9732 0.2299
vn -0.0000 0.9895 0.1446
vn 0.0123 0.9891 0.1466
vn 1.0000 -0.0000 -0.0000
vn -0.0124 0.9153 0.4026
vn -0.0000 0.9113 0.4117
vn -0.1888 0.9820 0.0038
vn -0.0982 0.9798 0.1743
vn -0.1462 0.9892 0.0035
vn -0.1076 0.9893 0.0983
vn -0.0102 0.8551 0.5183
vn -0.0000 0.8325 0.5540
vn -0.0186 0.9295 0.3683
vn -0.0279 0.9223 0.3855
vn -0.0345 0.9591 0.2810
vn -0.0000 0.9963 0.0863
vn -0.0060 0.9981 0.0619
vn -0.0232 0.9997 -0.0000
vn -0.0952 0.9955 -0.0000
vn -0.0000 1.0000 -0.0000
vn -0.1526 0.9883 -0.0000
vn -0.1857 0.9826 -0.0000
vn -0.1905 0.9817 -0.0000
vn -0.1270 0.9919 -0.0000
vn 0.0772 0.9968 0.0201
vn 0.0459 0.9892 0.1395
vn 0.0818 0.9914 0.1025
vn 0.1187 0.9929 -0.0041
vn 0.1939 0.9810 -0.0036
vn 0.1266 0.9792 0.1583
vn 0.0010 0.9666 0.2564
vn -0.0123 0.9891 0.1466
vn 0.0124 0.9153 0.4026
vn 0.1888 0.9820 0.0038
vn 0.0982 0.9798 0.1743
vn 0.1462 0.9892 0.0035
vn 0.1076 0.9893 0.0983
vn 0.0102 0.8551 0.5183
vn 0.0186 0.9295 0.3683
vn 0.0279 0.9223 0.3855
vn 0.0345 0.9591 0.2810
vn 0.0060 0.9981 0.0619
vn 0.0232 0.9997 -0.0000
vn 0.0952 0.9955 -0.0000
vn 0.1526 0.9883 -0.0000
vn 0.1857 0.9826 -0.0000
vn 0.1905 0.9817 -0.0000
vn 0.1270 0.9919 -0.0000
vn -0.0000 -0.0000 -1.0000
vn -0.0772 0.9968 -0.0201
vn -0.0459 0.9892 -0.1395
vn -0.0818 0.9914 -0.1025
vn -0.1187 0.9929 0.0041
vn -0.1939 0.9810 0.0036
vn -0.1266 0.9792 -0.1583
vn -0.0010 0.9666 -0.2564
vn 0.0123 0.9891 -0.1466
vn -0.0000 0.9895 -0.1446
vn -0.0000 0.9732 -0.2299
vn -0.0124 0.9153 -0.4026
vn -0.0000 0.9113 -0.4117
vn -0.1888 0.9820 -0.0038
vn -0.0982 0.9798 -0.1743
vn -0.1462 0.9892 -0.0035
vn -0.1076 0.9893 -0.0983
vn -0.0102 0.8551 -0.5183
vn -0.0000 0.8325 -0.5540
vn -0.0186 0.9295 -0.3683
vn -0.0279 0.9223 -0.3855
vn -0.0345 0.9591 -0.2810
vn -0.0000 0.9963 -0.0863
vn -0.0060 0.9981 -0.0619
vn 0.0772 0.9968 -0.0201
vn 0.1187 0.9929 0.0041
vn 0.0818 0.9914 -0.1025
vn 0.0459 0.9892 -0.1395
vn 0.1939 0.9810 0.0036
vn 0.1266 0.9792 -0.1583
vn 0.0010 0.9666 -0.2564
vn -0.0123 0.9891 -0.1466
vn 0.0124 0.9153 -0.4026
vn 0.1888 0.9820 -0.0038
vn 0.0982 0.9798 -0.1743
vn 0.1462 0.9892 -0.0035
vn 0.1076 0.9893 -0.0983
vn 0.0102 0.8551 -0.5183
vn 0.0186 0.9295 -0.3683
vn 0.0279 0.9223 -0.3855
vn 0.0345 0.9591 -0.2810
vn 0.0060 0.9981 -0.0619
vt 0.264796 0.582530
vt 0.264797 0.960439
vt 0.047015 0.960439
vt 0.047015 0.582530
vt 0.625000 0.062500
vt 0.625000 0.000000
vt 0.625000 0.062500
vt 0.547808 0.594746
vt 0.547808 0.677311
vt 0.538349 0.677311
vt 0.538349 0.594746
vt 0.706168 0.377461
vt 0.705507 0.473817
vt 0.604652 0.473139
vt 0.605241 0.377051
vt 0.687753 0.310308
vt 0.833329 0.318544
vt 0.742739 0.494713
vt 0.642414 0.494440
vt 0.547807 0.920864
vt 0.547807 0.991726
vt 0.538349 0.991726
vt 0.538349 0.920864
vt 0.590947 0.297182
vt 0.936650 0.298249
vt 0.936857 0.487520
vt 0.590424 0.494304
vt 0.625000 0.911982
vt 0.625000 0.875000
vt 0.286202 0.801994
vt 0.286202 0.974781
vt 0.022417 0.974781
vt 0.022417 0.801994
vt 0.592811 0.153690
vt 0.936866 0.153650
vt 0.730703 0.159502
vt 0.919226 0.166517
vt 0.764637 0.021087
vt 0.987186 0.020912
vt 0.592063 0.017414
vt 0.936866 0.017422
vt 0.263989 0.583775
vt 0.263989 0.994350
vt 0.045878 0.994350
vt 0.045878 0.583775
vt 0.739739 0.011950
vt 0.962953 0.011950
vt 0.963542 0.150230
vt 0.789050 0.146099
vt 0.962628 0.295831
vt 0.838611 0.305070
vt 0.625000 0.955991
vt 0.625000 0.955991
vt 0.962481 0.495862
vt 0.897491 0.492842
vt 0.547808 0.799087
vt 0.538349 0.799087
vt 0.706204 0.088566
vt 0.706828 0.281104
vt 0.605830 0.280963
vt 0.604652 0.088004
vt 0.286202 0.743969
vt 0.022417 0.743969
vt 0.262004 0.847582
vt 0.350439 0.847582
vt 0.350439 0.962633
vt 0.174575 0.962633
vt 0.262004 0.584242
vt 0.174575 0.584242
vt 0.714593 0.314308
vt 0.832501 0.489822
vt 0.625000 1.000000
vt 0.614558 0.141967
vt 0.516525 0.011950
vt 0.482578 0.582530
vt 0.482578 0.960439
vt 0.807826 0.281245
vt 0.807094 0.377870
vt 0.807756 0.089128
vt 0.482100 0.583775
vt 0.482100 0.994350
vt 0.542089 0.021261
vt 0.542180 0.152487
vt 0.542176 0.302072
vt 0.542089 0.494167
vt 0.806363 0.474496
vt 0.547808 0.512181
vt 0.538349 0.512181
vt 0.625000 0.125000
s 1
usemtl Material
f 42/1/1 36/2/1 2/3/1 1/4/1
f 46/5/2 2/6/2 3/6/2 47/7/2
f 47/8/3 3/9/3 4/10/3 48/11/3
f 53/12/4 49/13/5 5/14/6 39/15/7
f 50/16/8 10/17/9 5/18/6 49/19/5
f 24/20/1 7/21/1 8/22/1 25/23/1
f 28/24/10 11/25/11 9/26/12 26/27/13
f 34/28/2 33/29/2 7/29/2 24/28/2
f 23/30/14 27/31/14 20/32/14 35/33/14
f 29/34/15 13/35/16 11/25/11 28/24/10
f 51/36/17 12/37/18 10/17/9 50/16/8
f 48/38/19 4/39/20 12/37/18 51/36/17
f 25/40/21 8/41/22 13/35/16 29/34/15
f 44/42/3 46/43/3 15/44/3 14/45/3
f 38/46/23 25/47/21 29/48/15 41/49/24
f 41/49/24 29/48/15 28/50/10 40/51/25
f 36/52/2 34/28/2 24/28/2 37/53/2
f 40/51/25 28/50/10 26/54/13 39/55/7
f 37/56/1 24/20/1 25/23/1 38/57/1
f 45/58/26 52/59/27 26/60/13 9/61/12
f 6/62/2 23/30/2 35/33/2 32/63/2
f 23/64/1 6/65/1 33/66/1 34/67/1
f 27/68/1 23/64/1 34/67/1 31/69/1
f 3/9/1 37/56/1 38/57/1 4/10/1
f 10/70/9 40/51/25 39/55/7 5/71/6
f 2/72/2 36/52/2 37/53/2 3/72/2
f 12/73/18 41/49/24 40/51/25 10/70/9
f 4/74/20 38/46/23 41/49/24 12/73/18
f 52/59/27 53/12/4 39/15/7 26/60/13
f 31/75/1 34/76/1 36/2/1 42/1/1
f 30/77/28 43/78/29 53/12/4 52/59/27
f 19/79/30 30/77/28 52/59/27 45/58/26
f 1/80/3 2/81/3 46/43/3 44/42/3
f 17/82/31 48/38/19 51/36/17 22/83/32
f 22/83/32 51/36/17 50/16/8 21/84/33
f 21/84/33 50/16/8 49/19/5 18/85/34
f 43/78/29 18/86/34 49/13/5 53/12/4
f 16/87/3 47/8/3 48/11/3 17/88/3
f 15/89/2 46/5/2 47/7/2 16/89/2
f 86/1/1 54/4/1 55/3/1 80/2/1
f 89/5/2 90/7/2 56/6/2 55/6/2
f 90/8/14 91/11/14 57/10/14 56/9/14
f 96/12/35 83/15/36 58/14/37 92/13/38
f 93/16/39 92/19/38 58/18/37 59/17/40
f 70/20/1 71/23/1 8/22/1 7/21/1
f 74/24/41 72/27/42 9/26/12 11/25/11
f 78/28/2 70/28/2 7/29/2 33/29/2
f 69/30/3 79/33/3 66/32/3 73/31/3
f 75/34/43 74/24/41 11/25/11 13/35/16
f 94/36/44 93/16/39 59/17/40 60/37/45
f 91/38/46 94/36/44 60/37/45 57/39/47
f 71/40/48 75/34/43 13/35/16 8/41/22
f 88/42/14 61/45/14 62/44/14 89/43/14
f 82/46/49 85/49/50 75/48/43 71/47/48
f 85/49/50 84/51/51 74/50/41 75/48/43
f 80/52/2 81/53/2 70/28/2 78/28/2
f 84/51/51 83/55/36 72/54/42 74/50/41
f 81/56/1 82/57/1 71/23/1 70/20/1
f 45/58/26 9/61/12 72/60/42 95/59/52
f 6/62/2 32/63/2 79/33/2 69/30/2
f 69/64/1 78/67/1 33/66/1 6/65/1
f 73/68/1 77/69/1 78/67/1 69/64/1
f 56/9/1 57/10/1 82/57/1 81/56/1
f 59/70/40 58/71/37 83/55/36 84/51/51
f 55/72/2 56/72/2 81/53/2 80/52/2
f 60/73/45 59/70/40 84/51/51 85/49/50
f 57/74/47 60/73/45 85/49/50 82/46/49
f 95/59/52 72/60/42 83/15/36 96/12/35
f 77/75/1 86/1/1 80/2/1 78/76/1
f 76/77/53 95/59/52 96/12/35 87/78/54
f 19/79/30 45/58/26 95/59/52 76/77/53
f 54/80/14 88/42/14 89/43/14 55/81/14
f 64/82/55 68/83/56 94/36/44 91/38/46
f 68/83/56 67/84/57 93/16/39 94/36/44
f 67/84/57 65/85/58 92/19/38 93/16/39
f 87/78/54 96/12/35 92/13/38 65/86/58
f 63/87/14 64/88/14 91/11/14 90/8/14
f 62/89/2 63/89/2 90/7/2 89/5/2
f 126/1/59 97/4/59 98/3/59 120/2/59
f 129/5/2 130/7/2 99/6/2 98/6/2
f 130/8/3 131/11/3 100/10/3 99/9/3
f 136/12/60 123/15/61 101/14/62 132/13/63
f 133/16/64 132/19/63 101/18/62 106/17/65
f 111/20/59 112/23/59 104/22/59 103/21/59
f 115/24/66 113/27/67 105/26/68 107/25/69
f 119/28/2 111/28/2 103/29/2 118/29/2
f 110/30/14 35/33/14 20/32/14 114/31/14
f 116/34/70 115/24/66 107/25/69 109/35/71
f 134/36/72 133/16/64 106/17/65 108/37/73
f 131/38/74 134/36/72 108/37/73 100/39/75
f 112/40/76 116/34/70 109/35/71 104/41/77
f 127/42/3 14/45/3 15/44/3 129/43/3
f 122/46/78 125/49/79 116/48/70 112/47/76
f 125/49/79 124/51/80 115/50/66 116/48/70
f 120/52/2 121/53/2 111/28/2 119/28/2
f 124/51/80 123/55/61 113/54/67 115/50/66
f 121/56/59 122/57/59 112/23/59 111/20/59
f 128/58/81 105/61/68 113/60/67 135/59/82
f 102/62/2 32/63/2 35/33/2 110/30/2
f 110/64/59 119/67/59 118/66/59 102/65/59
f 114/68/59 117/69/59 119/67/59 110/64/59
f 99/9/59 100/10/59 122/57/59 121/56/59
f 106/70/65 101/71/62 123/55/61 124/51/80
f 98/72/2 99/72/2 121/53/2 120/52/2
f 108/73/73 106/70/65 124/51/80 125/49/79
f 100/74/75 108/73/73 125/49/79 122/46/78
f 135/59/82 113/60/67 123/15/61 136/12/60
f 117/75/59 126/1/59 120/2/59 119/76/59
f 30/77/28 135/59/82 136/12/60 43/78/29
f 19/79/30 128/58/81 135/59/82 30/77/28
f 97/80/3 127/42/3 129/43/3 98/81/3
f 17/82/31 22/83/32 134/36/72 131/38/74
f 22/83/32 21/84/33 133/16/64 134/36/72
f 21/84/33 18/85/34 132/19/63 133/16/64
f 43/78/29 136/12/60 132/13/63 18/86/34
f 16/87/3 17/88/3 131/11/3 130/8/3
f 15/89/2 16/89/2 130/7/2 129/5/2
f 159/1/59 153/2/59 138/3/59 137/4/59
f 161/5/2 138/6/2 139/6/2 162/7/2
f 162/8/14 139/9/14 140/10/14 163/11/14
f 168/12/83 164/13/84 141/14/85 156/15/86
f 165/16/87 142/17/88 141/18/85 164/19/84
f 145/20/59 103/21/59 104/22/59 146/23/59
f 149/24/89 107/25/69 105/26/68 147/27/90
f 152/28/2 118/29/2 103/29/2 145/28/2
f 144/30/3 148/31/3 66/32/3 79/33/3
f 150/34/91 109/35/71 107/25/69 149/24/89
f 166/36/92 143/37/93 142/17/88 165/16/87
f 163/38/94 140/39/95 143/37/93 166/36/92
f 146/40/96 104/41/77 109/35/71 150/34/91
f 160/42/14 161/43/14 62/44/14 61/45/14
f 155/46/97 146/47/96 150/48/91 158/49/98
f 158/49/98 150/48/91 149/50/89 157/51/99
f 153/52/2 152/28/2 145/28/2 154/53/2
f 157/51/99 149/50/89 147/54/90 156/55/86
f 154/56/59 145/20/59 146/23/59 155/57/59
f 128/58/81 167/59/100 147/60/90 105/61/68
f 102/62/2 144/30/2 79/33/2 32/63/2
f 144/64/59 102/65/59 118/66/59 152/67/59
f 148/68/59 144/64/59 152/67/59 151/69/59
f 139/9/59 154/56/59 155/57/59 140/10/59
f 142/70/88 157/51/99 156/55/86 141/71/85
f 138/72/2 153/52/2 154/53/2 139/72/2
f 143/73/93 158/49/98 157/51/99 142/70/88
f 140/74/95 155/46/97 158/49/98 143/73/93
f 167/59/100 168/12/83 156/15/86 147/60/90
f 151/75/59 152/76/59 153/2/59 159/1/59
f 76/77/53 87/78/54 168/12/83 167/59/100
f 19/79/30 76/77/53 167/59/100 128/58/81
f 137/80/14 138/81/14 161/43/14 160/42/14
f 64/82/55 163/38/94 166/36/92 68/83/56
f 68/83/56 166/36/92 165/16/87 67/84/57
f 67/84/57 165/16/87 164/19/84 65/85/58
f 87/78/54 65/86/58 164/13/84 168/12/83
f 63/87/14 162/8/14 163/11/14 64/88/14
f 62/89/2 161/5/2 162/7/2 63/89/2
