# Blender 4.4.1
# www.blender.org
mtllib wood_cut_house.mtl
o Cube.004
v -1.979240 0.000000 1.979240
v -1.979240 2.471179 1.979240
v -1.979240 0.000000 -1.979240
v -1.979240 2.471179 -1.979240
v 1.979240 0.000000 1.979240
v 1.979240 2.471179 1.979240
v 1.979240 0.000000 -1.979240
v 1.979240 2.471179 -1.979240
v -2.083740 2.471179 2.083740
v -2.083740 2.471179 -2.083740
v 2.083740 2.471179 -2.083740
v 2.083740 2.471179 2.083740
v -1.194179 2.998266 1.194179
v -1.194179 2.998266 -1.194179
v 1.194179 2.998266 -1.194179
v 1.194179 2.998266 1.194179
v -2.083740 2.591358 2.083740
v -2.083740 2.591358 -2.083740
v 2.083740 2.591358 -2.083740
v 2.083740 2.591358 2.083740
v -1.623314 2.789995 1.666576
v -1.651928 2.810567 -1.603999
v 1.668555 2.726121 -1.674364
v 1.606687 2.852564 1.611787
v -0.395793 1.853384 -1.979240
v 0.395793 1.853384 -1.979240
v 0.395742 1.853384 1.979240
v -0.395742 1.853384 1.979240
v 1.979240 1.853384 1.979240
v 1.979240 1.853384 -1.979240
v -1.979240 1.853384 -1.979240
v -1.979240 1.853384 1.979240
v -0.395790 0.000000 -1.979240
v 0.395790 0.000000 -1.979240
v 0.395794 2.471179 -1.979240
v -0.395794 2.471179 -1.979240
v 0.395740 0.000000 1.979240
v -0.395740 0.000000 1.979240
v -0.395743 2.471179 1.979240
v 0.395743 2.471179 1.979240
v 0.395808 2.471179 -2.083740
v -0.395808 2.471179 -2.083740
v -0.395750 2.471179 2.083740
v 0.395750 2.471179 2.083740
v 0.395832 2.591358 -2.083740
v -0.395832 2.591358 -2.083740
v -0.395763 2.591358 2.083740
v 0.395763 2.591358 2.083740
v -0.395476 2.998266 -1.194179
v 0.395476 2.998266 -1.194179
v 0.395485 2.998266 1.194179
v -0.395485 2.998266 1.194179
v -0.403920 2.813617 1.645892
v 0.387293 2.828943 1.632471
v 0.403930 2.758283 -1.647565
v -0.387303 2.778405 -1.630798
v -1.979240 2.162282 1.979240
v 0.395794 2.162282 -1.979240
v 1.979240 2.162282 1.979240
v -1.979240 2.162282 -1.979240
v 1.979240 2.162282 -1.979240
v -0.395742 2.162282 1.979240
v 0.395743 2.162282 1.979240
v -0.395794 2.162282 -1.979240
v -1.979240 0.000000 0.000000
v -1.979240 2.471179 0.000000
v 1.979240 0.000000 0.000000
v 1.979240 2.471179 0.000000
v -2.083740 2.471179 0.000000
v 2.083740 2.471179 0.000000
v -2.083740 2.591358 0.000000
v 2.083740 2.591358 0.000000
v -1.194179 2.998266 0.000000
v 1.194179 2.998266 0.000000
v 1.637621 2.789343 -0.031288
v -1.637621 2.800281 0.031289
v -1.979240 1.853384 0.000000
v 1.979240 1.853384 0.000000
v -0.395481 3.170148 0.000000
v 0.395481 3.170148 0.000000
v 1.979240 2.162282 0.000000
v -1.979240 2.162282 0.000000
v -1.979240 -2.025298 1.979240
v -1.979240 -2.025298 -1.979240
v 1.979240 -2.025298 1.979240
v 1.979240 -2.025298 -1.979240
v -0.395790 -2.025298 -1.979240
v 0.395790 -2.025298 -1.979240
v 0.395740 -2.025298 1.979240
v -0.395740 -2.025298 1.979240
v -1.979240 -2.025298 0.000000
v 1.979240 -2.025298 0.000000
v 2.109493 0.000117 1.066265
v 2.109493 0.000117 -1.066265
v 2.174493 0.017534 1.066265
v 2.174493 0.017534 -1.066265
v 2.222076 0.065117 1.066265
v 2.222076 0.065117 -1.066265
v 2.239493 0.130117 1.066265
v 2.239493 0.130117 -1.066265
v 2.222076 0.195117 1.066265
v 2.222076 0.195117 -1.066265
v 2.174493 0.242701 1.066265
v 2.174493 0.242701 -1.066265
v 2.109493 0.260117 1.066265
v 2.109493 0.260117 -1.066265
v 2.044493 0.242701 1.066265
v 2.044493 0.242701 -1.066265
v 1.996910 0.195117 1.066265
v 1.996910 0.195117 -1.066265
v 1.979493 0.130117 1.066265
v 1.979493 0.130117 -1.066265
v 1.996910 0.065117 1.066265
v 1.996910 0.065117 -1.066265
v 2.044493 0.017534 1.066265
v 2.044493 0.017534 -1.066265
v 2.109493 0.010509 0.710844
v 2.109493 0.000117 0.355422
v 2.109493 0.017485 -0.000000
v 2.109493 0.000117 -0.355422
v 2.085975 0.000117 -0.710844
v 2.150975 0.017534 -0.710844
v 2.174493 0.017534 -0.355422
v 2.174493 0.034902 0.000000
v 2.174493 0.017534 0.355422
v 2.174493 0.027926 0.710844
v 2.198558 0.065117 -0.710844
v 2.222076 0.065117 -0.355422
v 2.222076 0.082485 0.000000
v 2.222076 0.065117 0.355422
v 2.222076 0.075509 0.710844
v 2.215975 0.130117 -0.710844
v 2.239493 0.130117 -0.355422
v 2.239493 0.147485 0.000000
v 2.239493 0.130117 0.355422
v 2.239493 0.140509 0.710844
v 2.198558 0.195117 -0.710844
v 2.222076 0.195117 -0.355422
v 2.222076 0.212485 0.000000
v 2.222076 0.195117 0.355422
v 2.222076 0.205509 0.710844
v 2.150975 0.242701 -0.710844
v 2.174493 0.242701 -0.355422
v 2.174493 0.260069 0.000000
v 2.174493 0.242701 0.355422
v 2.174493 0.253093 0.710844
v 2.085975 0.260117 -0.710844
v 2.109493 0.260117 -0.355422
v 2.109493 0.277485 0.000000
v 2.109493 0.260117 0.355422
v 2.109493 0.270509 0.710844
v 2.020975 0.242701 -0.710844
v 2.044493 0.242701 -0.355422
v 2.044493 0.260069 0.000000
v 2.044493 0.242701 0.355422
v 2.044493 0.253093 0.710844
v 1.973391 0.195117 -0.710844
v 1.996910 0.195117 -0.355422
v 1.996910 0.212485 0.000000
v 1.996910 0.195117 0.355422
v 1.996910 0.205509 0.710844
v 1.955975 0.130117 -0.710844
v 1.979493 0.130117 -0.355422
v 1.979493 0.147485 0.000000
v 1.979493 0.130117 0.355422
v 1.979493 0.140509 0.710844
v 1.973391 0.065117 -0.710844
v 1.996910 0.065117 -0.355422
v 1.996910 0.082485 0.000000
v 1.996910 0.065117 0.355422
v 1.996910 0.075509 0.710844
v 2.020975 0.017534 -0.710844
v 2.044493 0.017534 -0.355422
v 2.044493 0.034902 0.000000
v 2.044493 0.017534 0.355422
v 2.044493 0.027926 0.710844
v 1.975753 0.378632 1.066265
v 1.975753 0.378632 -1.066265
v 1.999602 0.315707 1.066265
v 1.999601 0.315707 -1.066265
v 2.051718 0.273136 1.066265
v 2.051717 0.273136 -1.066265
v 2.118137 0.262327 1.066265
v 2.118136 0.262327 -1.066265
v 2.181062 0.286175 1.066265
v 2.181062 0.286176 -1.066265
v 2.223633 0.338291 1.066265
v 2.223632 0.338292 -1.066265
v 2.234442 0.404711 1.066265
v 2.234442 0.404711 -1.066265
v 2.210593 0.467636 1.066265
v 2.210593 0.467636 -1.066265
v 2.158477 0.510207 1.066265
v 2.158477 0.510207 -1.066265
v 2.092058 0.521016 1.066265
v 2.092058 0.521016 -1.066265
v 2.029133 0.497167 1.066265
v 2.029132 0.497167 -1.066265
v 1.986562 0.445051 1.066265
v 1.986562 0.445051 -1.066265
v 1.986092 0.379674 0.710844
v 1.975753 0.378632 0.355422
v 1.993033 0.380374 0.000000
v 1.975753 0.378632 -0.355422
v 1.973394 0.402032 -0.710844
v 1.997242 0.339106 -0.710844
v 1.999601 0.315707 -0.355422
v 2.016882 0.317449 0.000000
v 1.999601 0.315707 0.355422
v 2.009941 0.316749 0.710844
v 2.049358 0.296536 -0.710844
v 2.051718 0.273136 -0.355422
v 2.068998 0.274878 0.000000
v 2.051718 0.273136 0.355422
v 2.062057 0.274178 0.710844
v 2.115778 0.285727 -0.710844
v 2.118137 0.262327 -0.355422
v 2.135417 0.264069 0.000000
v 2.118137 0.262327 0.355422
v 2.128476 0.263369 0.710844
v 2.178703 0.309575 -0.710844
v 2.181062 0.286176 -0.355422
v 2.198342 0.287918 0.000000
v 2.181062 0.286175 0.355422
v 2.191401 0.287218 0.710844
v 2.221273 0.361691 -0.710844
v 2.223633 0.338292 -0.355422
v 2.240913 0.340034 0.000000
v 2.223633 0.338292 0.355422
v 2.233972 0.339334 0.710844
v 2.232083 0.428110 -0.710844
v 2.234442 0.404711 -0.355422
v 2.251722 0.406453 0.000000
v 2.234442 0.404711 0.355422
v 2.244781 0.405753 0.710844
v 2.208234 0.491036 -0.710844
v 2.210593 0.467636 -0.355422
v 2.227873 0.469378 0.000000
v 2.210593 0.467636 0.355422
v 2.220933 0.468678 0.710844
v 2.156118 0.533606 -0.710844
v 2.158477 0.510207 -0.355422
v 2.175757 0.511949 0.000000
v 2.158477 0.510207 0.355422
v 2.168817 0.511249 0.710844
v 2.089699 0.544416 -0.710844
v 2.092058 0.521016 -0.355422
v 2.109338 0.522758 0.000000
v 2.092058 0.521016 0.355422
v 2.102397 0.522058 0.710844
v 2.026773 0.520567 -0.710844
v 2.029133 0.497167 -0.355422
v 2.046413 0.498909 0.000000
v 2.029133 0.497167 0.355422
v 2.039472 0.498209 0.710844
v 1.984203 0.468451 -0.710844
v 1.986562 0.445051 -0.355422
v 2.003842 0.446793 0.000000
v 1.986562 0.445051 0.355422
v 1.996902 0.446093 0.710844
v 1.975753 0.634999 1.066265
v 1.975753 0.634999 -1.066265
v 1.999602 0.572073 1.066265
v 1.999601 0.572074 -1.066265
v 2.051718 0.529503 1.066265
v 2.051717 0.529503 -1.066265
v 2.118137 0.518694 1.066265
v 2.118136 0.518694 -1.066265
v 2.181062 0.542542 1.066265
v 2.181062 0.542543 -1.066265
v 2.223633 0.594658 1.066265
v 2.223632 0.594659 -1.066265
v 2.234442 0.661078 1.066265
v 2.234442 0.661078 -1.066265
v 2.210593 0.724003 1.066265
v 2.210593 0.724003 -1.066265
v 2.158477 0.766573 1.066265
v 2.158477 0.766574 -1.066265
v 2.092058 0.777383 1.066265
v 2.092058 0.777383 -1.066265
v 2.029133 0.753534 1.066265
v 2.029132 0.753534 -1.066265
v 1.986562 0.701418 1.066265
v 1.986562 0.701418 -1.066265
v 1.986092 0.636041 0.710844
v 1.975753 0.634999 0.355422
v 1.993033 0.636741 0.000000
v 1.975753 0.634999 -0.355422
v 1.973394 0.658399 -0.710844
v 1.997242 0.595473 -0.710844
v 1.999601 0.572074 -0.355422
v 2.016882 0.573816 0.000000
v 1.999601 0.572074 0.355422
v 2.009941 0.573116 0.710844
v 2.049358 0.552903 -0.710844
v 2.051718 0.529503 -0.355422
v 2.068998 0.531245 0.000000
v 2.051718 0.529503 0.355422
v 2.062057 0.530545 0.710844
v 2.115778 0.542094 -0.710844
v 2.118137 0.518694 -0.355422
v 2.135417 0.520436 0.000000
v 2.118137 0.518694 0.355422
v 2.128476 0.519736 0.710844
v 2.178703 0.565942 -0.710844
v 2.181062 0.542542 -0.355422
v 2.198342 0.544284 0.000000
v 2.181062 0.542542 0.355422
v 2.191401 0.543585 0.710844
v 2.221273 0.618058 -0.710844
v 2.223633 0.594659 -0.355422
v 2.240913 0.596401 0.000000
v 2.223633 0.594658 0.355422
v 2.233972 0.595701 0.710844
v 2.232083 0.684477 -0.710844
v 2.234442 0.661078 -0.355422
v 2.251722 0.662820 0.000000
v 2.234442 0.661078 0.355422
v 2.244781 0.662120 0.710844
v 2.208234 0.747403 -0.710844
v 2.210593 0.724003 -0.355422
v 2.227873 0.725745 0.000000
v 2.210593 0.724003 0.355422
v 2.220933 0.725045 0.710844
v 2.156118 0.789973 -0.710844
v 2.158477 0.766574 -0.355422
v 2.175757 0.768316 0.000000
v 2.158477 0.766573 0.355422
v 2.168817 0.767616 0.710844
v 2.089699 0.800782 -0.710844
v 2.092058 0.777383 -0.355422
v 2.109338 0.779125 0.000000
v 2.092058 0.777383 0.355422
v 2.102397 0.778425 0.710844
v 2.026773 0.776934 -0.710844
v 2.029133 0.753534 -0.355422
v 2.046413 0.755276 0.000000
v 2.029133 0.753534 0.355422
v 2.039472 0.754576 0.710844
v 1.984203 0.724818 -0.710844
v 1.986562 0.701418 -0.355422
v 2.003842 0.703160 0.000000
v 1.986562 0.701418 0.355422
v 1.996902 0.702460 0.710844
v 1.987508 -0.168025 1.066265
v 1.987508 -0.168025 -1.066265
v 2.026322 -0.222997 1.066265
v 2.026321 -0.222997 -1.066265
v 2.087421 -0.251197 1.066265
v 2.087420 -0.251197 -1.066265
v 2.154434 -0.245070 1.066265
v 2.154434 -0.245069 -1.066265
v 2.209406 -0.206256 1.066265
v 2.209405 -0.206256 -1.066265
v 2.237606 -0.145157 1.066265
v 2.237605 -0.145157 -1.066265
v 2.231478 -0.078144 1.066265
v 2.231478 -0.078144 -1.066265
v 2.192665 -0.023172 1.066265
v 2.192664 -0.023172 -1.066265
v 2.131566 0.005028 1.066265
v 2.131565 0.005028 -1.066265
v 2.064552 -0.001100 1.066265
v 2.064552 -0.001099 -1.066265
v 2.009581 -0.039913 1.066265
v 2.009580 -0.039913 -1.066265
v 1.981381 -0.101012 1.066265
v 1.981380 -0.101012 -1.066265
v 1.997259 -0.164433 0.710844
v 1.987508 -0.168025 0.355422
v 2.003805 -0.162021 -0.000000
v 1.987508 -0.168025 -0.355422
v 1.979378 -0.145957 -0.710844
v 2.018191 -0.200929 -0.710844
v 2.026321 -0.222997 -0.355422
v 2.042618 -0.216993 0.000000
v 2.026321 -0.222997 0.355422
v 2.036072 -0.219405 0.710844
v 2.079290 -0.229129 -0.710844
v 2.087420 -0.251197 -0.355422
v 2.103718 -0.245193 0.000000
v 2.087420 -0.251197 0.355422
v 2.097172 -0.247605 0.710844
v 2.146304 -0.223001 -0.710844
v 2.154434 -0.245069 -0.355422
v 2.170731 -0.239065 0.000000
v 2.154434 -0.245069 0.355422
v 2.164185 -0.241477 0.710844
v 2.201275 -0.184188 -0.710844
v 2.209405 -0.206256 -0.355422
v 2.225703 -0.200252 0.000000
v 2.209405 -0.206256 0.355422
v 2.219157 -0.202664 0.710844
v 2.229475 -0.123089 -0.710844
v 2.237606 -0.145157 -0.355422
v 2.253902 -0.139153 0.000000
v 2.237606 -0.145157 0.355422
v 2.247357 -0.141565 0.710844
v 2.223348 -0.056075 -0.710844
v 2.231478 -0.078144 -0.355422
v 2.247775 -0.072140 0.000000
v 2.231478 -0.078144 0.355422
v 2.241229 -0.074551 0.710844
v 2.184534 -0.001104 -0.710844
v 2.192665 -0.023172 -0.355422
v 2.208962 -0.017168 0.000000
v 2.192665 -0.023172 0.355422
v 2.202416 -0.019580 0.710844
v 2.123435 0.027096 -0.710844
v 2.131566 0.005028 -0.355422
v 2.147862 0.011032 0.000000
v 2.131566 0.005028 0.355422
v 2.141317 0.008620 0.710844
v 2.056422 0.020969 -0.710844
v 2.064552 -0.001099 -0.355422
v 2.080849 0.004905 0.000000
v 2.064552 -0.001100 0.355422
v 2.074303 0.002493 0.710844
v 2.001450 -0.017845 -0.710844
v 2.009581 -0.039913 -0.355422
v 2.025877 -0.033909 0.000000
v 2.009581 -0.039913 0.355422
v 2.019332 -0.036320 0.710844
v 1.973250 -0.078944 -0.710844
v 1.981380 -0.101012 -0.355422
v 1.997678 -0.095008 0.000000
v 1.981381 -0.101012 0.355422
v 1.991132 -0.097420 0.710844
v 1.983919 -0.365098 1.066265
v 1.983919 -0.365098 -1.066265
v 1.983927 -0.432391 1.066265
v 1.983926 -0.432391 -1.066265
v 2.017580 -0.490665 1.066265
v 2.017580 -0.490665 -1.066265
v 2.075861 -0.524305 1.066265
v 2.075861 -0.524304 -1.066265
v 2.143154 -0.524297 1.066265
v 2.143154 -0.524296 -1.066265
v 2.201428 -0.490644 1.066265
v 2.201427 -0.490643 -1.066265
v 2.235067 -0.432362 1.066265
v 2.235067 -0.432362 -1.066265
v 2.235060 -0.365069 1.066265
v 2.235059 -0.365069 -1.066265
v 2.201406 -0.306796 1.066265
v 2.201406 -0.306795 -1.066265
v 2.143125 -0.273156 1.066265
v 2.143125 -0.273156 -1.066265
v 2.075832 -0.273164 1.066265
v 2.075832 -0.273163 -1.066265
v 2.017559 -0.306817 1.066265
v 2.017558 -0.306817 -1.066265
v 1.993957 -0.367787 0.710844
v 1.983919 -0.365098 0.355422
v 2.000695 -0.369591 -0.000000
v 1.983919 -0.365098 -0.355422
v 1.990003 -0.342381 -0.710844
v 1.990011 -0.409674 -0.710844
v 1.983927 -0.432391 -0.355422
v 2.000703 -0.436884 0.000000
v 1.983927 -0.432391 0.355422
v 1.993965 -0.435080 0.710844
v 2.023664 -0.467947 -0.710844
v 2.017580 -0.490665 -0.355422
v 2.034356 -0.495158 0.000000
v 2.017580 -0.490665 0.355422
v 2.027618 -0.493353 0.710844
v 2.081945 -0.501587 -0.710844
v 2.075861 -0.524304 -0.355422
v 2.092638 -0.528798 0.000000
v 2.075861 -0.524305 0.355422
v 2.085899 -0.526993 0.710844
v 2.149238 -0.501579 -0.710844
v 2.143154 -0.524297 -0.355422
v 2.159931 -0.528790 0.000000
v 2.143154 -0.524297 0.355422
v 2.153192 -0.526985 0.710844
v 2.207512 -0.467926 -0.710844
v 2.201427 -0.490643 -0.355422
v 2.218204 -0.495137 -0.000000
v 2.201428 -0.490643 0.355422
v 2.211466 -0.493332 0.710844
v 2.241152 -0.409644 -0.710844
v 2.235067 -0.432362 -0.355422
v 2.251844 -0.436855 0.000000
v 2.235067 -0.432362 0.355422
v 2.245106 -0.435051 0.710844
v 2.241144 -0.342351 -0.710844
v 2.235059 -0.365069 -0.355422
v 2.251836 -0.369562 0.000000
v 2.235059 -0.365069 0.355422
v 2.245098 -0.367758 0.710844
v 2.207490 -0.284078 -0.710844
v 2.201406 -0.306796 -0.355422
v 2.218183 -0.311289 0.000000
v 2.201406 -0.306796 0.355422
v 2.211444 -0.309484 0.710844
v 2.149209 -0.250438 -0.710844
v 2.143125 -0.273156 -0.355422
v 2.159901 -0.277649 0.000000
v 2.143125 -0.273156 0.355422
v 2.153163 -0.275844 0.710844
v 2.081916 -0.250446 -0.710844
v 2.075832 -0.273164 -0.355422
v 2.092608 -0.277657 0.000000
v 2.075832 -0.273164 0.355422
v 2.085870 -0.275852 0.710844
v 2.023643 -0.284099 -0.710844
v 2.017558 -0.306817 -0.355422
v 2.034335 -0.311310 0.000000
v 2.017559 -0.306817 0.355422
v 2.027596 -0.309505 0.710844
v 2.240541 -0.619334 -1.000591
v 2.240541 0.813033 -1.000591
v 2.240541 -0.619334 -1.062045
v 2.240541 0.813033 -1.062045
v 2.275516 -0.619334 -1.000591
v 2.275516 0.813033 -1.000591
v 2.275516 -0.619334 -1.062045
v 2.275516 0.813033 -1.062045
v 2.240541 -0.619334 -0.019778
v 2.240541 0.813033 -0.019778
v 2.240541 -0.619334 -0.081232
v 2.240541 0.813033 -0.081232
v 2.275516 -0.619334 -0.019778
v 2.275516 0.813033 -0.019778
v 2.275516 -0.619334 -0.081232
v 2.275516 0.813033 -0.081232
v 2.240541 -0.619334 1.065537
v 2.240541 0.813033 1.065537
v 2.240541 -0.619334 1.004083
v 2.240541 0.813033 1.004083
v 2.275516 -0.619334 1.065537
v 2.275516 0.813033 1.065537
v 2.275516 -0.619334 1.004083
v 2.275516 0.813033 1.004083
vn -1.0000 -0.0000 -0.0000
vn -0.0000 -1.0000 -0.0000
vn 1.0000 -0.0000 -0.0000
vn -0.0032 0.9649 0.2627
vn -0.1886 0.9668 0.1727
vn -0.2117 0.9495 0.2315
vn -0.0054 0.9099 0.4148
vn -0.0000 -0.0000 1.0000
vn -0.0000 -0.0000 -1.0000
vn -0.1678 0.9664 -0.1948
vn 0.0037 0.9542 -0.2991
vn 0.0072 0.9086 -0.4176
vn -0.2280 0.9515 -0.2065
vn 0.0073 0.9116 -0.4111
vn 0.2009 0.9590 -0.1999
vn 0.1881 0.9661 -0.1766
vn 0.0076 0.9361 -0.3517
vn -0.4159 0.9094 0.0048
vn -0.2143 0.9515 -0.2206
vn -0.4251 0.9051 0.0041
vn 0.0071 0.9224 -0.3862
vn 0.4141 0.9101 -0.0139
vn 0.2254 0.9473 0.2275
vn 0.2382 0.9397 0.2454
vn 0.4053 0.9141 -0.0121
vn -0.0054 0.9100 0.4145
vn -0.0042 0.8836 0.4683
vn 0.1682 0.9741 0.1508
vn -0.0033 0.9677 0.2522
vn 0.3183 0.9480 -0.0078
vn -0.0661 0.9978 -0.0000
vn -0.3103 0.9506 0.0027
vn 0.0661 0.9978 -0.0000
vn -0.2275 0.9486 0.2202
vn -0.0044 0.8931 0.4498
vn 0.0035 0.9507 -0.3100
vn 0.2032 0.9551 -0.2156
vn -0.0109 -0.9999 -0.0000
vn 0.0109 -0.9999 0.0007
vn 0.5078 -0.8608 0.0336
vn 0.4918 -0.8707 -0.0000
vn 0.8673 -0.4945 0.0574
vn 0.8633 -0.5048 -0.0000
vn 0.9978 -0.0000 0.0660
vn 0.8673 0.4945 0.0574
vn 0.8633 0.5048 -0.0000
vn 0.5078 0.8608 0.0336
vn 0.4918 0.8707 -0.0000
vn 0.0109 0.9999 0.0007
vn -0.0109 0.9999 -0.0000
vn -0.4915 0.8703 -0.0325
vn -0.5081 0.8613 -0.0000
vn -0.8619 0.5039 -0.0570
vn -0.8687 0.4954 -0.0000
vn -0.9978 -0.0000 -0.0660
vn -0.8619 -0.5039 -0.0570
vn -0.8687 -0.4954 -0.0000
vn -0.4915 -0.8703 -0.0325
vn -0.5081 -0.8613 -0.0000
vn -0.4978 -0.8669 -0.0253
vn -0.5021 -0.8648 -0.0000
vn -0.0000 -0.9996 -0.0292
vn -0.4972 -0.8676 -0.0085
vn -0.0000 -1.0000 -0.0097
vn -0.5035 -0.8640 -0.0000
vn -0.4938 -0.8688 0.0374
vn 0.0055 -0.9997 0.0240
vn -0.8638 -0.5035 -0.0147
vn -0.8681 -0.4964 -0.0000
vn -0.8632 -0.5048 -0.0050
vn -0.8695 -0.4939 -0.0000
vn -0.8622 -0.5049 0.0410
vn -1.0000 -0.0048 -0.0001
vn -1.0000 0.0048 -0.0000
vn -1.0000 -0.0064 -0.0001
vn -1.0000 0.0080 -0.0000
vn -0.9994 -0.0040 0.0334
vn -0.8680 0.4963 0.0145
vn -0.8639 0.5036 -0.0000
vn -0.8688 0.4951 0.0048
vn -0.8625 0.5060 -0.0000
vn -0.8663 0.4993 0.0166
vn -0.5019 0.8645 0.0253
vn -0.4979 0.8672 -0.0000
vn -0.5028 0.8644 0.0085
vn -0.4966 0.8680 -0.0000
vn -0.4976 0.8674 -0.0049
vn -0.0000 0.9996 0.0292
vn -0.0000 1.0000 -0.0000
vn -0.0000 1.0000 0.0099
vn 0.0054 0.9997 -0.0249
vn 0.5019 0.8645 0.0253
vn 0.4979 0.8672 -0.0000
vn 0.5028 0.8644 0.0085
vn 0.4966 0.8680 -0.0000
vn 0.5054 0.8620 -0.0379
vn 0.8680 0.4963 0.0145
vn 0.8639 0.5036 -0.0000
vn 0.8688 0.4951 0.0048
vn 0.8625 0.5060 -0.0000
vn 0.8684 0.4942 -0.0407
vn 1.0000 -0.0048 -0.0001
vn 1.0000 0.0048 -0.0000
vn 1.0000 -0.0064 -0.0001
vn 1.0000 0.0080 -0.0000
vn 0.9995 -0.0040 -0.0327
vn 0.8638 -0.5035 -0.0147
vn 0.8681 -0.4964 -0.0000
vn 0.8632 -0.5048 -0.0050
vn 0.8695 -0.4939 -0.0000
vn 0.8655 -0.5006 -0.0162
vn 0.4978 -0.8669 -0.0253
vn 0.5021 -0.8648 -0.0000
vn 0.4972 -0.8676 -0.0085
vn 0.5035 -0.8640 -0.0000
vn 0.5023 -0.8647 0.0044
vn -0.9960 -0.0895 -0.0000
vn -0.9938 -0.1111 0.0007
vn -0.8056 -0.5916 0.0336
vn -0.8170 -0.5766 -0.0000
vn -0.4051 -0.9125 0.0574
vn -0.4156 -0.9095 -0.0000
vn 0.1001 -0.9928 0.0660
vn 0.1003 -0.9950 -0.0000
vn 0.5790 -0.8133 0.0574
vn 0.5888 -0.8083 -0.0000
vn 0.9074 -0.4189 0.0336
vn 0.9157 -0.4019 -0.0000
vn 0.9960 0.0895 0.0007
vn 0.9938 0.1111 -0.0000
vn 0.8166 0.5763 -0.0325
vn 0.8060 0.5919 -0.0000
vn 0.4150 0.9081 -0.0570
vn 0.4057 0.9140 -0.0000
vn -0.1001 0.9928 -0.0660
vn -0.1003 0.9950 -0.0000
vn -0.5878 0.8070 -0.0570
vn -0.5800 0.8146 -0.0000
vn -0.9152 0.4017 -0.0325
vn -0.9079 0.4191 -0.0000
vn -0.9125 0.4083 -0.0253
vn -0.9108 0.4128 -0.0000
vn -0.9950 -0.1003 -0.0000
vn -0.9945 -0.1003 -0.0292
vn -0.9131 0.4077 -0.0085
vn -0.9949 -0.1003 -0.0097
vn -0.9101 0.4143 -0.0000
vn -0.9139 0.4042 0.0374
vn -0.9941 -0.1057 0.0240
vn -0.5876 0.8090 -0.0147
vn -0.5809 0.8139 -0.0000
vn -0.5888 0.8082 -0.0050
vn -0.5786 0.8156 -0.0000
vn -0.5889 0.8072 0.0410
vn -0.1051 0.9945 -0.0001
vn -0.0955 0.9954 -0.0000
vn -0.1067 0.9943 -0.0001
vn -0.0923 0.9957 -0.0000
vn -0.1042 0.9940 0.0334
vn 0.4068 0.9134 0.0145
vn 0.4144 0.9101 -0.0000
vn 0.4055 0.9141 0.0048
vn 0.4169 0.9089 -0.0000
vn 0.4099 0.9120 0.0166
vn 0.8098 0.5861 0.0253
vn 0.8129 0.5824 -0.0000
vn 0.8096 0.5869 0.0085
vn 0.8138 0.5811 -0.0000
vn 0.8131 0.5821 -0.0049
vn 0.9945 0.1003 0.0292
vn 0.9950 0.1003 -0.0000
vn 0.9949 0.1003 0.0099
vn 0.9952 0.0949 -0.0249
vn 0.9105 -0.4127 0.0253
vn 0.9128 -0.4084 -0.0000
vn 0.9104 -0.4136 0.0085
vn 0.9134 -0.4070 -0.0000
vn 0.9084 -0.4164 -0.0379
vn 0.5809 -0.8139 0.0145
vn 0.5877 -0.8091 -0.0000
vn 0.5798 -0.8148 0.0048
vn 0.5899 -0.8074 -0.0000
vn 0.5788 -0.8144 -0.0407
vn 0.0955 -0.9954 -0.0001
vn 0.1051 -0.9945 -0.0000
vn 0.0939 -0.9956 -0.0001
vn 0.1083 -0.9941 -0.0000
vn 0.0962 -0.9948 -0.0327
vn -0.4144 -0.9100 -0.0147
vn -0.4068 -0.9135 -0.0000
vn -0.4156 -0.9095 -0.0050
vn -0.4042 -0.9147 -0.0000
vn -0.4113 -0.9114 -0.0162
vn -0.8126 -0.5822 -0.0253
vn -0.8101 -0.5863 -0.0000
vn -0.8133 -0.5817 -0.0085
vn -0.8091 -0.5876 -0.0000
vn -0.8099 -0.5865 0.0044
vn -0.5879 0.8070 -0.0570
vn -0.9421 -0.3355 -0.0000
vn -0.9345 -0.3559 0.0007
vn -0.6322 -0.7741 0.0336
vn -0.6471 -0.7624 -0.0000
vn -0.1642 -0.9848 0.0574
vn -0.1752 -0.9845 -0.0000
vn 0.3449 -0.9363 0.0660
vn 0.3457 -0.9383 -0.0000
vn 0.7639 -0.6428 0.0574
vn 0.7721 -0.6355 -0.0000
vn 0.9833 -0.1789 0.0336
vn 0.9870 -0.1604 -0.0000
vn 0.9421 0.3355 0.0007
vn 0.9345 0.3559 -0.0000
vn 0.6467 0.7620 -0.0325
vn 0.6326 0.7745 -0.0000
vn 0.1749 0.9829 -0.0570
vn 0.1645 0.9864 -0.0000
vn -0.3449 0.9363 -0.0660
vn -0.3457 0.9383 -0.0000
vn -0.7708 0.6345 -0.0570
vn -0.7651 0.6439 -0.0000
vn -0.9865 0.1603 -0.0325
vn -0.9839 0.1790 -0.0000
vn -0.9856 0.1674 -0.0253
vn -0.9851 0.1722 -0.0000
vn -0.9383 -0.3457 -0.0000
vn -0.9379 -0.3456 -0.0292
vn -0.9860 0.1666 -0.0085
vn -0.9383 -0.3457 -0.0097
vn -0.9848 0.1738 -0.0000
vn -0.9859 0.1630 0.0374
vn -0.9362 -0.3507 0.0240
vn -0.7711 0.6365 -0.0147
vn -0.7659 0.6430 -0.0000
vn -0.7721 0.6355 -0.0050
vn -0.7641 0.6451 -0.0000
vn -0.7719 0.6345 0.0410
vn -0.3502 0.9367 -0.0001
vn -0.3412 0.9400 -0.0000
vn -0.3517 0.9361 -0.0001
vn -0.3381 0.9411 -0.0000
vn -0.3493 0.9364 0.0334
vn 0.1656 0.9861 0.0145
vn 0.1739 0.9848 -0.0000
vn 0.1643 0.9864 0.0048
vn 0.1766 0.9843 -0.0000
vn 0.1690 0.9855 0.0166
vn 0.6377 0.7699 0.0253
vn 0.6416 0.7670 -0.0000
vn 0.6373 0.7706 0.0085
vn 0.6428 0.7660 -0.0000
vn 0.6419 0.7668 -0.0049
vn 0.9379 0.3456 0.0292
vn 0.9383 0.3457 -0.0000
vn 0.9383 0.3457 0.0099
vn 0.9399 0.3405 -0.0249
vn 0.9848 -0.1721 0.0253
vn 0.9859 -0.1674 -0.0000
vn 0.9849 -0.1730 0.0085
vn 0.9861 -0.1659 -0.0000
vn 0.9836 -0.1762 -0.0379
vn 0.7658 -0.6429 0.0145
vn 0.7712 -0.6366 -0.0000
vn 0.7650 -0.6441 0.0048
vn 0.7730 -0.6344 -0.0000
vn 0.7640 -0.6440 -0.0407
vn 0.3412 -0.9400 -0.0001
vn 0.3502 -0.9367 -0.0000
vn 0.3397 -0.9405 -0.0001
vn 0.3532 -0.9355 -0.0000
vn 0.3417 -0.9392 -0.0327
vn -0.1739 -0.9847 -0.0147
vn -0.1657 -0.9862 -0.0000
vn -0.1752 -0.9845 -0.0050
vn -0.1629 -0.9866 -0.0000
vn -0.1706 -0.9852 -0.0162
vn -0.6414 -0.7668 -0.0253
vn -0.6379 -0.7701 -0.0000
vn -0.6422 -0.7665 -0.0085
vn -0.6367 -0.7711 -0.0000
vn -0.6377 -0.7703 0.0044
vn -0.9631 0.2692 -0.0000
vn -0.9687 0.2482 0.0007
vn -0.9629 -0.2678 0.0336
vn -0.9683 -0.2497 -0.0000
vn -0.7021 -0.7098 0.0574
vn -0.7109 -0.7033 -0.0000
vn -0.2581 -0.9638 0.0660
vn -0.2587 -0.9660 -0.0000
vn 0.2533 -0.9657 0.0574
vn 0.2643 -0.9645 -0.0000
vn 0.7002 -0.7132 0.0336
vn 0.7139 -0.7003 -0.0000
vn 0.9631 -0.2692 0.0007
vn 0.9687 -0.2482 -0.0000
vn 0.9678 0.2496 -0.0325
vn 0.9634 0.2679 -0.0000
vn 0.7098 0.7021 -0.0570
vn 0.7032 0.7110 -0.0000
vn 0.2581 0.9638 -0.0660
vn 0.2587 0.9660 -0.0000
vn -0.2638 0.9629 -0.0570
vn -0.2537 0.9673 -0.0000
vn -0.7135 0.6999 -0.0325
vn -0.7006 0.7136 -0.0000
vn -0.7086 0.7051 -0.0253
vn -0.7055 0.7087 -0.0000
vn -0.9660 0.2587 -0.0000
vn -0.9655 0.2586 -0.0292
vn -0.7094 0.7047 -0.0085
vn -0.9659 0.2587 -0.0097
vn -0.7043 0.7099 -0.0000
vn -0.7114 0.7017 0.0374
vn -0.9671 0.2534 0.0240
vn -0.2629 0.9647 -0.0147
vn -0.2549 0.9670 -0.0000
vn -0.2643 0.9644 -0.0050
vn -0.2522 0.9677 -0.0000
vn -0.2647 0.9635 0.0410
vn 0.2541 0.9672 -0.0001
vn 0.2634 0.9647 -0.0000
vn 0.2525 0.9676 -0.0001
vn 0.2665 0.9638 -0.0000
vn 0.2547 0.9664 0.0334
vn 0.7040 0.7101 0.0145
vn 0.7100 0.7042 -0.0000
vn 0.7031 0.7111 0.0048
vn 0.7119 0.7023 -0.0000
vn 0.7064 0.7076 0.0166
vn 0.9650 0.2612 0.0253
vn 0.9665 0.2566 -0.0000
vn 0.9650 0.2621 0.0085
vn 0.9669 0.2551 -0.0000
vn 0.9666 0.2563 -0.0049
vn 0.9655 -0.2586 0.0292
vn 0.9660 -0.2587 -0.0000
vn 0.9659 -0.2587 0.0099
vn 0.9642 -0.2639 -0.0249
vn 0.7053 -0.7085 0.0253
vn 0.7089 -0.7053 -0.0000
vn 0.7049 -0.7093 0.0085
vn 0.7100 -0.7042 -0.0000
vn 0.7019 -0.7112 -0.0379
vn 0.2549 -0.9669 0.0145
vn 0.2629 -0.9648 -0.0000
vn 0.2535 -0.9673 0.0048
vn 0.2656 -0.9641 -0.0000
vn 0.2527 -0.9667 -0.0407
vn -0.2634 -0.9647 -0.0001
vn -0.2541 -0.9672 -0.0000
vn -0.2649 -0.9643 -0.0001
vn -0.2509 -0.9680 -0.0000
vn -0.2625 -0.9644 -0.0327
vn -0.7099 -0.7042 -0.0147
vn -0.7041 -0.7101 -0.0000
vn -0.7109 -0.7033 -0.0050
vn -0.7021 -0.7121 -0.0000
vn -0.7075 -0.7065 -0.0162
vn -0.9662 -0.2565 -0.0253
vn -0.9653 -0.2613 -0.0000
vn -0.9667 -0.2558 -0.0085
vn -0.9648 -0.2628 -0.0000
vn -0.9652 -0.2615 0.0044
vt 0.717782 0.638672
vt 0.750968 0.638672
vt 0.750968 0.771415
vt 0.717782 0.771415
vt 0.625000 0.500000
vt 0.625000 0.399997
vt 0.625000 0.398744
vt 0.598132 0.632812
vt 0.630383 0.632812
vt 0.630383 0.761816
vt 0.598132 0.761816
vt 0.625000 1.000000
vt 0.625000 0.899993
vt 0.625000 0.898740
vt 0.704099 0.453890
vt 0.616766 0.454015
vt 0.569413 0.237457
vt 0.703156 0.237021
vt 0.658693 0.547466
vt 0.698729 0.547466
vt 0.698729 0.675588
vt 0.658693 0.675588
vt 0.544295 0.736328
vt 0.544295 0.528044
vt 0.556308 0.528044
vt 0.556308 0.736328
vt 0.625000 0.625000
vt 0.625000 0.125000
vt 0.625000 0.000000
vt 0.520156 0.944613
vt 0.520156 0.775892
vt 0.532169 0.775894
vt 0.532169 0.944613
vt 0.877921 0.454237
vt 0.790588 0.453836
vt 0.789687 0.246108
vt 0.926821 0.240291
vt 0.544239 0.736328
vt 0.544239 0.944612
vt 0.532226 0.944612
vt 0.532226 0.736328
vt 0.519485 0.029228
vt 0.704051 0.029453
vt 0.556364 0.944612
vt 0.556364 0.775886
vt 0.568377 0.775887
vt 0.568377 0.944612
vt 0.750775 0.242575
vt 0.747357 0.030093
vt 0.790609 0.029430
vt 0.975185 0.029228
vt 0.747341 0.454019
vt 0.703827 0.392349
vt 0.574236 0.392349
vt 0.574236 0.160576
vt 0.798320 0.775603
vt 0.798320 0.506447
vt 0.977758 0.506447
vt 0.977758 0.775603
vt 0.961754 0.392349
vt 0.832163 0.392349
vt 0.961754 0.160576
vt 0.520156 0.696764
vt 0.520156 0.528044
vt 0.532169 0.528044
vt 0.532169 0.696762
vt 0.556364 0.696770
vt 0.556364 0.528044
vt 0.568377 0.528044
vt 0.568377 0.696769
vt 0.625000 0.850007
vt 0.625000 0.750000
vt 0.625000 0.851260
vt 0.625000 0.350003
vt 0.625000 0.250000
vt 0.625000 0.351256
vt 0.659284 0.548959
vt 0.698138 0.548959
vt 0.698138 0.673300
vt 0.659284 0.673300
vt 0.580785 0.513584
vt 0.639919 0.513584
vt 0.639919 0.702819
vt 0.580785 0.702819
vt 0.703826 0.160576
vt 0.832164 0.160576
vt 0.578790 0.999997
vt 0.578791 0.776018
vt 0.676162 0.776018
vt 0.676162 0.999997
vt 0.579812 0.999195
vt 0.579812 0.777203
vt 0.675148 0.777203
vt 0.675148 0.999195
vt 0.649338 0.515577
vt 0.708084 0.515577
vt 0.708084 0.703567
vt 0.649338 0.703567
vt 0.567237 0.795345
vt 0.507807 0.795345
vt 0.507807 0.700272
vt 0.567237 0.700272
vt 0.570838 0.797067
vt 0.510558 0.797067
vt 0.510558 0.700646
vt 0.570838 0.700646
vt 0.798321 0.506447
vt 0.977758 0.506447
vt 0.977758 0.506447
vt 0.798320 0.506447
vt 0.713835 0.775603
vt 0.713835 0.506447
vt 0.996361 0.506447
vt 0.996361 0.775603
vt 0.626744 0.895343
vt 0.588906 0.895343
vt 0.588906 0.845550
vt 0.626744 0.845550
vt 0.626820 0.895291
vt 0.588594 0.895291
vt 0.588594 0.845298
vt 0.626820 0.845298
vt 0.507807 0.510091
vt 0.567237 0.510091
vt 0.567237 0.985526
vt 0.507807 0.985526
vt 0.570838 0.989974
vt 0.510558 0.989974
vt 0.510558 0.507739
vt 0.570838 0.507739
vt 0.512269 0.754191
vt 0.570157 0.754191
vt 0.570157 0.985744
vt 0.512269 0.985744
vt 0.512105 0.752500
vt 0.570321 0.752500
vt 0.570321 0.985362
vt 0.512105 0.985362
vt 0.512105 0.519637
vt 0.570321 0.519637
vt 0.512269 0.522638
vt 0.570157 0.522638
vt 0.832162 0.160576
vt 0.832163 0.392349
vt 0.703827 0.392349
vt 0.703828 0.160576
vt 0.544239 0.528044
vt 0.532226 0.528044
vt 0.544295 0.944612
vt 0.556308 0.944612
vt 0.598132 0.503809
vt 0.630383 0.503809
vt 0.717782 0.505929
vt 0.750968 0.505929
vt 0.595005 0.275336
vt 0.595005 0.198994
vt 0.692650 0.198994
vt 0.692650 0.275336
vt 0.788184 0.182132
vt 0.692759 0.182132
vt 0.692759 0.084487
vt 0.788184 0.084487
vt 0.883608 0.182132
vt 0.883608 0.084487
vt 0.790404 0.389949
vt 0.790404 0.466294
vt 0.692759 0.466294
vt 0.692759 0.389949
vt 0.595005 0.160830
vt 0.692650 0.160830
vt 0.790404 0.351790
vt 0.692759 0.351790
vt 0.595005 0.084487
vt 0.692650 0.084487
vt 0.595005 0.370870
vt 0.595005 0.275445
vt 0.692650 0.275445
vt 0.692650 0.370870
vt 0.790404 0.275445
vt 0.692759 0.275445
vt 0.595005 0.466294
vt 0.692650 0.466294
vt 0.501863 0.583534
vt 0.501863 0.500895
vt 0.508211 0.500895
vt 0.508211 0.583534
vt 0.514558 0.500895
vt 0.514558 0.583534
vt 0.520906 0.500895
vt 0.520906 0.583534
vt 0.527253 0.500895
vt 0.527253 0.583534
vt 0.533601 0.500895
vt 0.533601 0.583534
vt 0.539948 0.500895
vt 0.539948 0.583534
vt 0.546296 0.500895
vt 0.546296 0.583534
vt 0.552643 0.500895
vt 0.552643 0.583534
vt 0.558991 0.500895
vt 0.558991 0.583534
vt 0.565338 0.500895
vt 0.565338 0.583534
vt 0.809356 0.661478
vt 0.795202 0.653306
vt 0.787031 0.639152
vt 0.787031 0.622809
vt 0.795202 0.608655
vt 0.809356 0.600484
vt 0.825699 0.600484
vt 0.839853 0.608656
vt 0.848024 0.622809
vt 0.848024 0.639152
vt 0.839853 0.653306
vt 0.825699 0.661478
vt 0.571686 0.500895
vt 0.571686 0.583534
vt 0.578033 0.500895
vt 0.578033 0.583534
vt 0.795202 0.653306
vt 0.795202 0.608655
vt 0.839853 0.608655
vt 0.571686 0.996732
vt 0.571686 0.914093
vt 0.578033 0.914093
vt 0.578033 0.996732
vt 0.571686 0.831453
vt 0.578033 0.831453
vt 0.571686 0.748813
vt 0.578033 0.748813
vt 0.571686 0.666174
vt 0.578033 0.666174
vt 0.565338 0.996732
vt 0.565338 0.914093
vt 0.565338 0.831453
vt 0.565338 0.748813
vt 0.565338 0.666174
vt 0.558991 0.996732
vt 0.558991 0.914093
vt 0.558991 0.831453
vt 0.558991 0.748813
vt 0.558991 0.666174
vt 0.552643 0.996732
vt 0.552643 0.914093
vt 0.552643 0.831453
vt 0.552643 0.748813
vt 0.552643 0.666174
vt 0.546296 0.996732
vt 0.546296 0.914093
vt 0.546296 0.831453
vt 0.546296 0.748813
vt 0.546296 0.666174
vt 0.539948 0.996732
vt 0.539948 0.914093
vt 0.539948 0.831453
vt 0.539948 0.748813
vt 0.539948 0.666174
vt 0.533601 0.996732
vt 0.533601 0.914093
vt 0.533601 0.831453
vt 0.533601 0.748813
vt 0.533601 0.666174
vt 0.527253 0.996732
vt 0.527253 0.914093
vt 0.527253 0.831453
vt 0.527253 0.748813
vt 0.527253 0.666174
vt 0.520906 0.996732
vt 0.520906 0.914093
vt 0.520906 0.831453
vt 0.520906 0.748813
vt 0.520906 0.666174
vt 0.514558 0.996732
vt 0.514558 0.914093
vt 0.514558 0.831453
vt 0.514558 0.748813
vt 0.514558 0.666174
vt 0.508211 0.996732
vt 0.508211 0.914093
vt 0.508211 0.831453
vt 0.508211 0.748813
vt 0.508211 0.666174
vt 0.501863 0.996732
vt 0.501863 0.914093
vt 0.501863 0.831453
vt 0.501863 0.748813
vt 0.501863 0.666174
vt 0.569166 0.502682
vt 0.569166 0.997613
vt 0.514535 0.997613
vt 0.514535 0.502682
vt 0.688947 0.669017
vt 0.702844 0.693696
vt 0.655240 0.720500
vt 0.641344 0.695822
s 1
usemtl Material
f 82/1/1 66/2/1 4/3/1 60/4/1
f 8/5/2 35/6/2 41/7/2 11/5/2
f 81/8/3 68/9/3 6/10/3 59/11/3
f 2/12/2 39/13/2 43/14/2 9/12/2
f 52/15/4 13/16/5 21/17/6 53/18/7
f 59/19/8 6/20/8 40/21/8 63/22/8
f 70/23/3 11/24/3 19/25/3 72/26/3
f 68/27/2 8/5/2 11/5/2 70/27/2
f 66/28/2 2/29/2 9/29/2 69/28/2
f 11/30/9 41/31/9 45/32/9 19/33/9
f 14/34/10 49/35/11 56/36/12 22/37/13
f 69/38/1 9/39/1 17/40/1 71/41/1
f 55/18/14 23/17/15 19/42/16 45/43/17
f 9/44/8 43/45/8 47/46/8 17/47/8
f 76/48/18 22/17/13 18/42/19 71/49/20
f 22/37/13 56/36/12 46/50/21 18/51/19
f 75/48/22 24/17/23 20/42/24 72/49/25
f 24/37/23 54/36/26 48/50/27 20/51/24
f 16/34/28 51/35/29 54/36/26 24/37/23
f 74/52/30 16/16/28 24/17/23 75/48/22
f 79/53/31 73/54/32 13/55/5
f 73/52/32 14/16/10 22/17/13 76/48/18
f 3/56/9 31/57/9 25/58/9 33/59/9
f 74/60/30 80/61/33 16/62/28
f 53/18/7 21/17/6 17/42/34 47/43/35
f 42/63/9 10/64/9 18/65/9 46/66/9
f 44/67/8 12/68/8 20/69/8 48/70/8
f 50/15/36 15/16/37 23/17/15 55/18/14
f 40/71/2 6/72/2 12/72/2 44/73/2
f 36/74/2 4/75/2 10/75/2 42/76/2
f 62/77/8 39/78/8 2/79/8 57/80/8
f 58/81/9 35/82/9 8/83/9 61/84/9
f 50/15/36 55/18/14 56/36/12 49/35/11
f 52/15/4 53/18/7 54/36/26 51/35/29
f 53/18/7 47/43/35 48/50/27 54/36/26
f 55/18/14 45/43/17 46/50/21 56/36/12
f 42/63/9 46/66/9 45/32/9 41/31/9
f 44/67/8 48/70/8 47/46/8 43/45/8
f 79/53/31 52/85/4 51/86/29 80/61/33
f 40/71/2 44/73/2 43/14/2 39/13/2
f 36/74/2 42/76/2 41/7/2 35/6/2
f 28/87/8 38/88/8 37/89/8 27/90/8
f 26/91/9 34/92/9 33/93/9 25/94/9
f 60/95/9 4/96/9 36/97/9 64/98/9
f 58/99/9 26/100/9 25/101/9 64/102/9
f 62/103/8 28/104/8 27/105/8 63/106/8
f 34/56/9 26/107/9 30/108/9 7/59/9
f 38/56/8 28/57/8 32/109/8 1/59/8
f 5/56/8 29/110/8 27/108/8 37/59/8
f 67/111/3 78/112/3 29/113/3 5/114/3
f 65/111/1 77/112/1 31/113/1 3/114/1
f 39/115/8 62/116/8 63/117/8 40/118/8
f 35/119/9 58/120/9 64/121/9 36/122/9
f 31/123/9 60/124/9 64/102/9 25/101/9
f 26/100/9 58/99/9 61/125/9 30/126/9
f 28/104/8 62/103/8 57/127/8 32/128/8
f 29/129/8 59/130/8 63/106/8 27/105/8
f 78/131/3 81/132/3 59/133/3 29/134/3
f 77/135/1 82/136/1 60/137/1 31/138/1
f 32/139/1 57/140/1 82/136/1 77/135/1
f 30/141/3 61/142/3 81/132/3 78/131/3
f 1/111/1 32/112/1 77/113/1 65/114/1
f 7/111/3 30/112/3 78/113/3 67/114/3
f 49/143/11 79/144/31 80/145/33 50/146/36
f 15/55/37 80/145/33 74/54/30
f 13/34/5 73/52/32 76/48/18 21/37/6
f 49/143/11 14/62/10 79/144/31
f 15/34/37 74/52/30 75/48/22 23/37/15
f 23/37/15 75/48/22 72/49/25 19/51/16
f 21/37/6 76/48/18 71/49/20 17/51/34
f 10/147/1 69/38/1 71/41/1 18/148/1
f 4/75/2 66/28/2 69/28/2 10/75/2
f 6/72/2 68/27/2 70/27/2 12/72/2
f 12/149/3 70/23/3 72/26/3 20/150/3
f 61/151/3 8/152/3 68/9/3 81/8/3
f 57/153/1 2/154/1 66/2/1 82/1/1
f 3/155/9 33/156/9 87/157/9 84/158/9
f 67/159/3 5/160/3 85/161/3 92/162/3
f 7/163/3 67/159/3 92/162/3 86/164/3
f 38/165/8 1/166/8 83/167/8 90/168/8
f 33/156/9 34/169/9 88/170/9 87/157/9
f 37/171/8 38/165/8 90/168/8 89/172/8
f 34/169/9 7/173/9 86/174/9 88/170/9
f 65/175/1 3/176/1 84/177/1 91/178/1
f 5/179/8 37/171/8 89/172/8 85/180/8
f 1/181/1 65/175/1 91/178/1 83/182/1
f 121/183/38 94/184/39 96/185/40 122/186/41
f 122/186/41 96/185/40 98/187/42 127/188/43
f 127/188/43 98/187/42 100/189/44 132/190/3
f 132/190/3 100/189/44 102/191/45 137/192/46
f 137/192/46 102/191/45 104/193/47 142/194/48
f 142/194/48 104/193/47 106/195/49 147/196/50
f 147/196/50 106/195/49 108/197/51 152/198/52
f 152/198/52 108/197/51 110/199/53 157/200/54
f 157/200/54 110/199/53 112/201/55 162/202/1
f 162/202/1 112/201/55 114/203/56 167/204/57
f 96/205/9 94/206/9 116/207/9 114/208/9 112/209/9 110/210/9 108/211/9 106/212/9 104/213/9 102/214/9 100/215/9 98/216/9
f 167/204/57 114/203/56 116/217/58 172/218/59
f 172/218/59 116/217/58 94/219/39 121/220/38
f 93/215/8 95/216/8 97/205/8 99/221/8 101/207/8 103/208/8 105/222/8 107/210/8 109/211/8 111/223/8 113/213/8 115/214/8
f 115/224/60 176/225/61 117/226/2 93/227/62
f 176/225/61 175/228/63 118/229/64 117/226/2
f 175/228/63 174/230/65 119/231/2 118/229/64
f 174/230/65 173/232/66 120/233/67 119/231/2
f 173/232/66 172/218/59 121/220/38 120/233/67
f 113/234/68 171/235/69 176/225/61 115/224/60
f 171/235/69 170/236/70 175/228/63 176/225/61
f 170/236/70 169/237/71 174/230/65 175/228/63
f 169/237/71 168/238/72 173/232/66 174/230/65
f 168/238/72 167/204/57 172/218/59 173/232/66
f 111/239/73 166/240/74 171/235/69 113/234/68
f 166/240/74 165/241/75 170/236/70 171/235/69
f 165/241/75 164/242/76 169/237/71 170/236/70
f 164/242/76 163/243/77 168/238/72 169/237/71
f 163/243/77 162/202/1 167/204/57 168/238/72
f 109/244/78 161/245/79 166/240/74 111/239/73
f 161/245/79 160/246/80 165/241/75 166/240/74
f 160/246/80 159/247/81 164/242/76 165/241/75
f 159/247/81 158/248/82 163/243/77 164/242/76
f 158/248/82 157/200/54 162/202/1 163/243/77
f 107/249/83 156/250/84 161/245/79 109/244/78
f 156/250/84 155/251/85 160/246/80 161/245/79
f 155/251/85 154/252/86 159/247/81 160/246/80
f 154/252/86 153/253/87 158/248/82 159/247/81
f 153/253/87 152/198/52 157/200/54 158/248/82
f 105/254/88 151/255/89 156/250/84 107/249/83
f 151/255/89 150/256/90 155/251/85 156/250/84
f 150/256/90 149/257/89 154/252/86 155/251/85
f 149/257/89 148/258/91 153/253/87 154/252/86
f 148/258/91 147/196/50 152/198/52 153/253/87
f 103/259/92 146/260/93 151/255/89 105/254/88
f 146/260/93 145/261/94 150/256/90 151/255/89
f 145/261/94 144/262/95 149/257/89 150/256/90
f 144/262/95 143/263/96 148/258/91 149/257/89
f 143/263/96 142/194/48 147/196/50 148/258/91
f 101/264/97 141/265/98 146/260/93 103/259/92
f 141/265/98 140/266/99 145/261/94 146/260/93
f 140/266/99 139/267/100 144/262/95 145/261/94
f 139/267/100 138/268/101 143/263/96 144/262/95
f 138/268/101 137/192/46 142/194/48 143/263/96
f 99/269/102 136/270/103 141/265/98 101/264/97
f 136/270/103 135/271/104 140/266/99 141/265/98
f 135/271/104 134/272/105 139/267/100 140/266/99
f 134/272/105 133/273/106 138/268/101 139/267/100
f 133/273/106 132/190/3 137/192/46 138/268/101
f 97/274/107 131/275/108 136/270/103 99/269/102
f 131/275/108 130/276/109 135/271/104 136/270/103
f 130/276/109 129/277/110 134/272/105 135/271/104
f 129/277/110 128/278/111 133/273/106 134/272/105
f 128/278/111 127/188/43 132/190/3 133/273/106
f 95/279/112 126/280/113 131/275/108 97/274/107
f 126/280/113 125/281/114 130/276/109 131/275/108
f 125/281/114 124/282/115 129/277/110 130/276/109
f 124/282/115 123/283/116 128/278/111 129/277/110
f 123/283/116 122/186/41 127/188/43 128/278/111
f 93/284/62 117/285/2 126/280/113 95/279/112
f 117/285/2 118/286/64 125/281/114 126/280/113
f 118/286/64 119/287/2 124/282/115 125/281/114
f 119/287/2 120/288/67 123/283/116 124/282/115
f 120/288/67 121/183/38 122/186/41 123/283/116
f 205/183/117 178/184/118 180/185/119 206/186/120
f 206/186/120 180/185/119 182/187/121 211/188/122
f 211/188/122 182/187/121 184/189/123 216/190/124
f 216/190/124 184/189/123 186/191/125 221/192/126
f 221/192/126 186/191/125 188/193/127 226/194/128
f 226/194/128 188/193/127 190/195/129 231/196/130
f 231/196/130 190/195/129 192/197/131 236/198/132
f 236/198/132 192/197/131 194/199/133 241/200/134
f 241/200/134 194/199/133 196/201/135 246/202/136
f 246/202/136 196/201/135 198/203/137 251/204/138
f 180/205/9 178/206/9 200/207/9 198/208/9 196/209/9 194/210/9 192/211/9 190/212/9 188/213/9 186/214/9 184/215/9 182/216/9
f 251/204/138 198/203/137 200/217/139 256/218/140
f 256/218/140 200/217/139 178/219/118 205/220/117
f 177/215/8 179/216/8 181/205/8 183/221/8 185/207/8 187/208/8 189/222/8 191/210/8 193/211/8 195/223/8 197/213/8 199/214/8
f 199/224/141 260/225/142 201/226/143 177/227/144
f 260/225/142 259/228/145 202/229/146 201/226/143
f 259/228/145 258/230/147 203/231/143 202/229/146
f 258/230/147 257/232/148 204/233/149 203/231/143
f 257/232/148 256/218/140 205/220/117 204/233/149
f 197/234/150 255/235/151 260/225/142 199/224/141
f 255/235/151 254/236/152 259/228/145 260/225/142
f 254/236/152 253/237/153 258/230/147 259/228/145
f 253/237/153 252/238/154 257/232/148 258/230/147
f 252/238/154 251/204/138 256/218/140 257/232/148
f 195/239/155 250/240/156 255/235/151 197/234/150
f 250/240/156 249/241/157 254/236/152 255/235/151
f 249/241/157 248/242/158 253/237/153 254/236/152
f 248/242/158 247/243/159 252/238/154 253/237/153
f 247/243/159 246/202/136 251/204/138 252/238/154
f 193/244/160 245/245/161 250/240/156 195/239/155
f 245/245/161 244/246/162 249/241/157 250/240/156
f 244/246/162 243/247/163 248/242/158 249/241/157
f 243/247/163 242/248/164 247/243/159 248/242/158
f 242/248/164 241/200/134 246/202/136 247/243/159
f 191/249/165 240/250/166 245/245/161 193/244/160
f 240/250/166 239/251/167 244/246/162 245/245/161
f 239/251/167 238/252/168 243/247/163 244/246/162
f 238/252/168 237/253/169 242/248/164 243/247/163
f 237/253/169 236/198/132 241/200/134 242/248/164
f 189/254/170 235/255/171 240/250/166 191/249/165
f 235/255/171 234/256/172 239/251/167 240/250/166
f 234/256/172 233/257/171 238/252/168 239/251/167
f 233/257/171 232/258/173 237/253/169 238/252/168
f 232/258/173 231/196/130 236/198/132 237/253/169
f 187/259/174 230/260/175 235/255/171 189/254/170
f 230/260/175 229/261/176 234/256/172 235/255/171
f 229/261/176 228/262/177 233/257/171 234/256/172
f 228/262/177 227/263/178 232/258/173 233/257/171
f 227/263/178 226/194/128 231/196/130 232/258/173
f 185/264/179 225/265/180 230/260/175 187/259/174
f 225/265/180 224/266/181 229/261/176 230/260/175
f 224/266/181 223/267/182 228/262/177 229/261/176
f 223/267/182 222/268/183 227/263/178 228/262/177
f 222/268/183 221/192/126 226/194/128 227/263/178
f 183/269/184 220/270/185 225/265/180 185/264/179
f 220/270/185 219/271/186 224/266/181 225/265/180
f 219/271/186 218/272/187 223/267/182 224/266/181
f 218/272/187 217/273/188 222/268/183 223/267/182
f 217/273/188 216/190/124 221/192/126 222/268/183
f 181/274/189 215/275/190 220/270/185 183/269/184
f 215/275/190 214/276/191 219/271/186 220/270/185
f 214/276/191 213/277/192 218/272/187 219/271/186
f 213/277/192 212/278/193 217/273/188 218/272/187
f 212/278/193 211/188/122 216/190/124 217/273/188
f 179/279/194 210/280/195 215/275/190 181/274/189
f 210/280/195 209/281/196 214/276/191 215/275/190
f 209/281/196 208/282/197 213/277/192 214/276/191
f 208/282/197 207/283/198 212/278/193 213/277/192
f 207/283/198 206/186/120 211/188/122 212/278/193
f 177/284/144 201/285/143 210/280/195 179/279/194
f 201/285/143 202/286/146 209/281/196 210/280/195
f 202/286/146 203/287/143 208/282/197 209/281/196
f 203/287/143 204/288/149 207/283/198 208/282/197
f 204/288/149 205/183/117 206/186/120 207/283/198
f 289/183/117 262/184/118 264/185/119 290/186/120
f 290/186/120 264/185/119 266/187/121 295/188/122
f 295/188/122 266/187/121 268/189/123 300/190/124
f 300/190/124 268/189/123 270/191/125 305/192/126
f 305/192/126 270/191/125 272/193/127 310/194/128
f 310/194/128 272/193/127 274/195/129 315/196/130
f 315/196/130 274/195/129 276/197/131 320/198/132
f 320/198/132 276/197/131 278/199/133 325/200/134
f 325/200/134 278/199/133 280/201/135 330/202/136
f 330/202/136 280/201/135 282/203/199 335/204/138
f 264/205/9 262/206/9 284/207/9 282/208/9 280/209/9 278/210/9 276/211/9 274/212/9 272/213/9 270/214/9 268/215/9 266/216/9
f 335/204/138 282/203/199 284/217/139 340/218/140
f 340/218/140 284/217/139 262/219/118 289/220/117
f 261/215/8 263/216/8 265/205/8 267/221/8 269/207/8 271/208/8 273/222/8 275/210/8 277/211/8 279/223/8 281/213/8 283/214/8
f 283/224/141 344/225/142 285/226/143 261/227/144
f 344/225/142 343/228/145 286/229/146 285/226/143
f 343/228/145 342/230/147 287/231/143 286/229/146
f 342/230/147 341/232/148 288/233/149 287/231/143
f 341/232/148 340/218/140 289/220/117 288/233/149
f 281/234/150 339/235/151 344/225/142 283/224/141
f 339/235/151 338/236/152 343/228/145 344/225/142
f 338/236/152 337/237/153 342/230/147 343/228/145
f 337/237/153 336/238/154 341/232/148 342/230/147
f 336/238/154 335/204/138 340/218/140 341/232/148
f 279/239/155 334/240/156 339/235/151 281/234/150
f 334/240/156 333/241/157 338/236/152 339/235/151
f 333/241/157 332/242/158 337/237/153 338/236/152
f 332/242/158 331/243/159 336/238/154 337/237/153
f 331/243/159 330/202/136 335/204/138 336/238/154
f 277/244/160 329/245/161 334/240/156 279/239/155
f 329/245/161 328/246/162 333/241/157 334/240/156
f 328/246/162 327/247/163 332/242/158 333/241/157
f 327/247/163 326/248/164 331/243/159 332/242/158
f 326/248/164 325/200/134 330/202/136 331/243/159
f 275/249/165 324/250/166 329/245/161 277/244/160
f 324/250/166 323/251/167 328/246/162 329/245/161
f 323/251/167 322/252/168 327/247/163 328/246/162
f 322/252/168 321/253/169 326/248/164 327/247/163
f 321/253/169 320/198/132 325/200/134 326/248/164
f 273/254/170 319/255/171 324/250/166 275/249/165
f 319/255/171 318/256/172 323/251/167 324/250/166
f 318/256/172 317/257/171 322/252/168 323/251/167
f 317/257/171 316/258/173 321/253/169 322/252/168
f 316/258/173 315/196/130 320/198/132 321/253/169
f 271/259/174 314/260/175 319/255/171 273/254/170
f 314/260/175 313/261/176 318/256/172 319/255/171
f 313/261/176 312/262/177 317/257/171 318/256/172
f 312/262/177 311/263/178 316/258/173 317/257/171
f 311/263/178 310/194/128 315/196/130 316/258/173
f 269/264/179 309/265/180 314/260/175 271/259/174
f 309/265/180 308/266/181 313/261/176 314/260/175
f 308/266/181 307/267/182 312/262/177 313/261/176
f 307/267/182 306/268/183 311/263/178 312/262/177
f 306/268/183 305/192/126 310/194/128 311/263/178
f 267/269/184 304/270/185 309/265/180 269/264/179
f 304/270/185 303/271/186 308/266/181 309/265/180
f 303/271/186 302/272/187 307/267/182 308/266/181
f 302/272/187 301/273/188 306/268/183 307/267/182
f 301/273/188 300/190/124 305/192/126 306/268/183
f 265/274/189 299/275/190 304/270/185 267/269/184
f 299/275/190 298/276/191 303/271/186 304/270/185
f 298/276/191 297/277/192 302/272/187 303/271/186
f 297/277/192 296/278/193 301/273/188 302/272/187
f 296/278/193 295/188/122 300/190/124 301/273/188
f 263/279/194 294/280/195 299/275/190 265/274/189
f 294/280/195 293/281/196 298/276/191 299/275/190
f 293/281/196 292/282/197 297/277/192 298/276/191
f 292/282/197 291/283/198 296/278/193 297/277/192
f 291/283/198 290/186/120 295/188/122 296/278/193
f 261/284/144 285/285/143 294/280/195 263/279/194
f 285/285/143 286/286/146 293/281/196 294/280/195
f 286/286/146 287/287/143 292/282/197 293/281/196
f 287/287/143 288/288/149 291/283/198 292/282/197
f 288/288/149 289/183/117 290/186/120 291/283/198
f 373/183/200 346/184/201 348/185/202 374/186/203
f 374/186/203 348/185/202 350/187/204 379/188/205
f 379/188/205 350/187/204 352/189/206 384/190/207
f 384/190/207 352/189/206 354/191/208 389/192/209
f 389/192/209 354/191/208 356/193/210 394/194/211
f 394/194/211 356/193/210 358/195/212 399/196/213
f 399/196/213 358/195/212 360/197/214 404/198/215
f 404/198/215 360/197/214 362/199/216 409/200/217
f 409/200/217 362/199/216 364/201/218 414/202/219
f 414/202/219 364/201/218 366/203/220 419/204/221
f 348/205/9 346/206/9 368/207/9 366/208/9 364/209/9 362/210/9 360/211/9 358/212/9 356/213/9 354/214/9 352/215/9 350/216/9
f 419/204/221 366/203/220 368/217/222 424/218/223
f 424/218/223 368/217/222 346/219/201 373/220/200
f 345/215/8 347/216/8 349/205/8 351/221/8 353/207/8 355/208/8 357/222/8 359/210/8 361/211/8 363/223/8 365/213/8 367/214/8
f 367/224/224 428/225/225 369/226/226 345/227/227
f 428/225/225 427/228/228 370/229/229 369/226/226
f 427/228/228 426/230/230 371/231/226 370/229/229
f 426/230/230 425/232/231 372/233/232 371/231/226
f 425/232/231 424/218/223 373/220/200 372/233/232
f 365/234/233 423/235/234 428/225/225 367/224/224
f 423/235/234 422/236/235 427/228/228 428/225/225
f 422/236/235 421/237/236 426/230/230 427/228/228
f 421/237/236 420/238/237 425/232/231 426/230/230
f 420/238/237 419/204/221 424/218/223 425/232/231
f 363/239/238 418/240/239 423/235/234 365/234/233
f 418/240/239 417/241/240 422/236/235 423/235/234
f 417/241/240 416/242/241 421/237/236 422/236/235
f 416/242/241 415/243/242 420/238/237 421/237/236
f 415/243/242 414/202/219 419/204/221 420/238/237
f 361/244/243 413/245/244 418/240/239 363/239/238
f 413/245/244 412/246/245 417/241/240 418/240/239
f 412/246/245 411/247/246 416/242/241 417/241/240
f 411/247/246 410/248/247 415/243/242 416/242/241
f 410/248/247 409/200/217 414/202/219 415/243/242
f 359/249/248 408/250/249 413/245/244 361/244/243
f 408/250/249 407/251/250 412/246/245 413/245/244
f 407/251/250 406/252/251 411/247/246 412/246/245
f 406/252/251 405/253/252 410/248/247 411/247/246
f 405/253/252 404/198/215 409/200/217 410/248/247
f 357/254/253 403/255/254 408/250/249 359/249/248
f 403/255/254 402/256/255 407/251/250 408/250/249
f 402/256/255 401/257/254 406/252/251 407/251/250
f 401/257/254 400/258/256 405/253/252 406/252/251
f 400/258/256 399/196/213 404/198/215 405/253/252
f 355/259/257 398/260/258 403/255/254 357/254/253
f 398/260/258 397/261/259 402/256/255 403/255/254
f 397/261/259 396/262/260 401/257/254 402/256/255
f 396/262/260 395/263/261 400/258/256 401/257/254
f 395/263/261 394/194/211 399/196/213 400/258/256
f 353/264/262 393/265/263 398/260/258 355/259/257
f 393/265/263 392/266/264 397/261/259 398/260/258
f 392/266/264 391/267/265 396/262/260 397/261/259
f 391/267/265 390/268/266 395/263/261 396/262/260
f 390/268/266 389/192/209 394/194/211 395/263/261
f 351/269/267 388/270/268 393/265/263 353/264/262
f 388/270/268 387/271/269 392/266/264 393/265/263
f 387/271/269 386/272/270 391/267/265 392/266/264
f 386/272/270 385/273/271 390/268/266 391/267/265
f 385/273/271 384/190/207 389/192/209 390/268/266
f 349/274/272 383/275/273 388/270/268 351/269/267
f 383/275/273 382/276/274 387/271/269 388/270/268
f 382/276/274 381/277/275 386/272/270 387/271/269
f 381/277/275 380/278/276 385/273/271 386/272/270
f 380/278/276 379/188/205 384/190/207 385/273/271
f 347/279/277 378/280/278 383/275/273 349/274/272
f 378/280/278 377/281/279 382/276/274 383/275/273
f 377/281/279 376/282/280 381/277/275 382/276/274
f 376/282/280 375/283/281 380/278/276 381/277/275
f 375/283/281 374/186/203 379/188/205 380/278/276
f 345/284/227 369/285/226 378/280/278 347/279/277
f 369/285/226 370/286/229 377/281/279 378/280/278
f 370/286/229 371/287/226 376/282/280 377/281/279
f 371/287/226 372/288/232 375/283/281 376/282/280
f 372/288/232 373/183/200 374/186/203 375/283/281
f 457/183/282 430/184/283 432/185/284 458/186/285
f 458/186/285 432/185/284 434/187/286 463/188/287
f 463/188/287 434/187/286 436/189/288 468/190/289
f 468/190/289 436/189/288 438/191/290 473/192/291
f 473/192/291 438/191/290 440/193/292 478/194/293
f 478/194/293 440/193/292 442/195/294 483/196/295
f 483/196/295 442/195/294 444/197/296 488/198/297
f 488/198/297 444/197/296 446/199/298 493/200/299
f 493/200/299 446/199/298 448/201/300 498/202/301
f 498/202/301 448/201/300 450/203/302 503/204/303
f 432/205/9 430/206/9 452/207/9 450/208/9 448/209/9 446/210/9 444/211/9 442/212/9 440/213/9 438/214/9 436/215/9 434/216/9
f 503/204/303 450/203/302 452/217/304 508/218/305
f 508/218/305 452/217/304 430/219/283 457/220/282
f 429/215/8 431/216/8 433/205/8 435/221/8 437/207/8 439/208/8 441/222/8 443/210/8 445/211/8 447/223/8 449/213/8 451/214/8
f 451/224/306 512/225/307 453/226/308 429/227/309
f 512/225/307 511/228/310 454/229/311 453/226/308
f 511/228/310 510/230/312 455/231/308 454/229/311
f 510/230/312 509/232/313 456/233/314 455/231/308
f 509/232/313 508/218/305 457/220/282 456/233/314
f 449/234/315 507/235/316 512/225/307 451/224/306
f 507/235/316 506/236/317 511/228/310 512/225/307
f 506/236/317 505/237/318 510/230/312 511/228/310
f 505/237/318 504/238/319 509/232/313 510/230/312
f 504/238/319 503/204/303 508/218/305 509/232/313
f 447/239/320 502/240/321 507/235/316 449/234/315
f 502/240/321 501/241/322 506/236/317 507/235/316
f 501/241/322 500/242/323 505/237/318 506/236/317
f 500/242/323 499/243/324 504/238/319 505/237/318
f 499/243/324 498/202/301 503/204/303 504/238/319
f 445/244/325 497/245/326 502/240/321 447/239/320
f 497/245/326 496/246/327 501/241/322 502/240/321
f 496/246/327 495/247/328 500/242/323 501/241/322
f 495/247/328 494/248/329 499/243/324 500/242/323
f 494/248/329 493/200/299 498/202/301 499/243/324
f 443/249/330 492/250/331 497/245/326 445/244/325
f 492/250/331 491/251/332 496/246/327 497/245/326
f 491/251/332 490/252/333 495/247/328 496/246/327
f 490/252/333 489/253/334 494/248/329 495/247/328
f 489/253/334 488/198/297 493/200/299 494/248/329
f 441/254/335 487/255/336 492/250/331 443/249/330
f 487/255/336 486/256/337 491/251/332 492/250/331
f 486/256/337 485/257/336 490/252/333 491/251/332
f 485/257/336 484/258/338 489/253/334 490/252/333
f 484/258/338 483/196/295 488/198/297 489/253/334
f 439/259/339 482/260/340 487/255/336 441/254/335
f 482/260/340 481/261/341 486/256/337 487/255/336
f 481/261/341 480/262/342 485/257/336 486/256/337
f 480/262/342 479/263/343 484/258/338 485/257/336
f 479/263/343 478/194/293 483/196/295 484/258/338
f 437/264/344 477/265/345 482/260/340 439/259/339
f 477/265/345 476/266/346 481/261/341 482/260/340
f 476/266/346 475/267/347 480/262/342 481/261/341
f 475/267/347 474/268/348 479/263/343 480/262/342
f 474/268/348 473/192/291 478/194/293 479/263/343
f 435/269/349 472/270/350 477/265/345 437/264/344
f 472/270/350 471/271/351 476/266/346 477/265/345
f 471/271/351 470/272/352 475/267/347 476/266/346
f 470/272/352 469/273/353 474/268/348 475/267/347
f 469/273/353 468/190/289 473/192/291 474/268/348
f 433/274/354 467/275/355 472/270/350 435/269/349
f 467/275/355 466/276/356 471/271/351 472/270/350
f 466/276/356 465/277/357 470/272/352 471/271/351
f 465/277/357 464/278/358 469/273/353 470/272/352
f 464/278/358 463/188/287 468/190/289 469/273/353
f 431/279/359 462/280/360 467/275/355 433/274/354
f 462/280/360 461/281/361 466/276/356 467/275/355
f 461/281/361 460/282/362 465/277/357 466/276/356
f 460/282/362 459/283/363 464/278/358 465/277/357
f 459/283/363 458/186/285 463/188/287 464/278/358
f 429/284/309 453/285/308 462/280/360 431/279/359
f 453/285/308 454/286/311 461/281/361 462/280/360
f 454/286/311 455/287/308 460/282/362 461/281/361
f 455/287/308 456/288/314 459/283/363 460/282/362
f 456/288/314 457/183/282 458/186/285 459/283/363
f 513/289/1 514/290/1 516/291/1 515/292/1
f 515/289/9 516/290/9 520/291/9 519/292/9
f 519/289/3 520/290/3 518/291/3 517/292/3
f 517/289/8 518/290/8 514/291/8 513/292/8
f 520/293/89 516/294/89 514/295/89 518/296/89
f 521/289/1 522/290/1 524/291/1 523/292/1
f 523/289/9 524/290/9 528/291/9 527/292/9
f 527/289/3 528/290/3 526/291/3 525/292/3
f 525/289/8 526/290/8 522/291/8 521/292/8
f 528/293/89 524/294/89 522/295/89 526/296/89
f 16/62/28 80/61/33 51/86/29
f 13/55/5 52/85/4 79/53/31
f 79/144/31 14/62/10 73/60/32
f 80/145/33 15/55/37 50/146/36
f 529/289/1 530/290/1 532/291/1 531/292/1
f 531/289/9 532/290/9 536/291/9 535/292/9
f 535/289/3 536/290/3 534/291/3 533/292/3
f 533/289/8 534/290/8 530/291/8 529/292/8
f 536/293/89 532/294/89 530/295/89 534/296/89
