# Blender 4.4.3
# www.blender.org
mtllib null_worker.mtl
o NullWorker
v 0.000000 0.839682 0.000000
v -0.321332 0.775765 0.000000
v -0.593745 0.593745 0.000000
v -0.775765 0.321332 0.000000
v -0.839682 -0.000000 0.000000
v -0.775765 -0.321332 -0.000000
v -0.593745 -0.593745 -0.000000
v -0.321332 -0.775765 -0.000000
v 0.000000 -0.839682 -0.000000
v 0.321332 -0.775765 -0.000000
v 0.593745 -0.593745 -0.000000
v 0.775765 -0.321332 -0.000000
v 0.839682 -0.000000 -0.000000
v 0.775765 0.321332 0.000000
v 0.593745 0.593745 0.000000
v 0.321332 0.775765 0.000000
v -0.000000 1.100111 0.000000
v -0.000000 1.116482 0.016057
v -0.427259 1.031495 0.016057
v -0.420994 1.016370 0.000000
v -0.789472 0.789472 0.016057
v -0.777896 0.777896 0.000000
v -1.031495 0.427259 0.016057
v -1.016370 0.420994 0.000000
v -1.116482 0.000000 0.016057
v -1.100111 0.000000 0.000000
v -1.031495 -0.427259 0.016057
v -1.016370 -0.420994 -0.000000
v -0.789472 -0.789472 0.016057
v -0.777896 -0.777896 -0.000000
v -0.427259 -1.031495 0.016057
v -0.420994 -1.016370 -0.000000
v -0.000000 -1.116482 0.016057
v -0.000000 -1.100111 -0.000000
v 0.427259 -1.031495 0.016057
v 0.420994 -1.016370 -0.000000
v 0.789472 -0.789472 0.016057
v 0.777896 -0.777896 -0.000000
v 1.031495 -0.427259 0.016057
v 1.016370 -0.420994 -0.000000
v 1.116482 0.000000 0.016057
v 1.100111 0.000000 -0.000000
v 1.031495 0.427259 0.016057
v 1.016370 0.420994 0.000000
v 0.789472 0.789472 0.016057
v 0.777896 0.777896 0.000000
v 0.427259 1.031495 0.016057
v 0.420994 1.016370 0.000000
v -0.000000 1.116482 0.212258
v -0.000000 1.100111 0.228315
v -0.420994 1.016370 0.228315
v -0.427259 1.031495 0.212258
v -0.777896 0.777896 0.228315
v -0.789472 0.789472 0.212258
v -1.016370 0.420994 0.228315
v -1.031495 0.427259 0.212258
v -1.100111 -0.000000 0.228315
v -1.116482 -0.000000 0.212258
v -1.016370 -0.420994 0.228315
v -1.031495 -0.427259 0.212258
v -0.777896 -0.777896 0.228315
v -0.789472 -0.789472 0.212258
v -0.420994 -1.016370 0.228315
v -0.427259 -1.031495 0.212258
v -0.000000 -1.100111 0.228315
v -0.000000 -1.116482 0.212258
v 0.420994 -1.016370 0.228315
v 0.427259 -1.031495 0.212258
v 0.777896 -0.777896 0.228315
v 0.789472 -0.789472 0.212258
v 1.016370 -0.420994 0.228315
v 1.031495 -0.427259 0.212258
v 1.100111 -0.000000 0.228315
v 1.116482 -0.000000 0.212258
v 1.016370 0.420994 0.228315
v 1.031495 0.427259 0.212258
v 0.777896 0.777896 0.228315
v 0.789472 0.789472 0.212258
v 0.420994 1.016370 0.228315
v 0.427259 1.031495 0.212258
v 0.000000 0.856053 0.228315
v 0.000000 0.839682 0.212258
v -0.321332 0.775765 0.212258
v -0.348034 0.786825 0.228315
v -0.593745 0.622646 0.228315
v -0.593745 0.593745 0.212258
v -0.775765 0.321332 0.212258
v -0.790890 0.327597 0.228315
v -0.839682 -0.000000 0.212258
v -0.856053 -0.000000 0.228315
v -0.775765 -0.321332 0.212258
v -0.790890 -0.327597 0.228315
v -0.593745 -0.593745 0.212258
v -0.605321 -0.605321 0.228315
v -0.321332 -0.775765 0.212258
v -0.327597 -0.790890 0.228315
v 0.000000 -0.839682 0.212258
v 0.000000 -0.856053 0.228315
v 0.321332 -0.775765 0.212258
v 0.348034 -0.786825 0.228315
v 0.593745 -0.622646 0.228315
v 0.593745 -0.593745 0.212258
v 0.775765 -0.321332 0.212258
v 0.790890 -0.327597 0.228315
v 0.839682 -0.000000 0.212258
v 0.856053 -0.000000 0.228315
v 0.775765 0.321332 0.212258
v 0.790890 0.327597 0.228315
v 0.593745 0.593745 0.212258
v 0.605321 0.605321 0.228315
v 0.321332 0.775765 0.212258
v 0.327597 0.790890 0.228315
vn -0.1951 -0.9808 -0.0000
vn 0.5556 -0.8315 -0.0000
vn -0.5556 0.8315 -0.0000
vn 0.8315 -0.5556 -0.0000
vn -0.8315 0.5556 -0.0000
vn 0.9808 -0.1951 -0.0000
vn -0.9808 0.1951 -0.0000
vn 0.9808 0.1951 -0.0000
vn -0.9808 -0.1951 -0.0000
vn 0.8315 0.5556 -0.0000
vn -0.8315 -0.5556 -0.0000
vn 0.5556 0.8315 -0.0000
vn -0.5556 -0.8315 -0.0000
vn 0.1951 0.9808 -0.0000
vn -0.0000 -0.0000 -1.0000
vn -0.1951 0.9808 -0.0000
vn -0.0000 -0.0000 1.0000
vn 0.1951 -0.9808 -0.0000
vn 0.1379 -0.6935 0.7071
vn 0.3928 -0.5879 0.7071
vn 0.5879 -0.3928 0.7071
vn 0.6935 -0.1379 0.7071
vn 0.6935 0.1379 0.7071
vn 0.5879 0.3928 0.7071
vn 0.3928 0.5879 0.7071
vn 0.1379 0.6935 0.7071
vn -0.1379 0.6935 0.7071
vn -0.3928 0.5879 0.7071
vn -0.5879 0.3928 0.7071
vn -0.6935 0.1379 0.7071
vn -0.6935 -0.1379 0.7071
vn -0.5879 -0.3928 0.7071
vn -0.3928 -0.5879 0.7071
vn -0.1379 -0.6935 0.7071
vn 0.1379 -0.6935 -0.7071
vn 0.3928 -0.5879 -0.7071
vn 0.5879 -0.3928 -0.7071
vn 0.6935 -0.1379 -0.7071
vn 0.6935 0.1379 -0.7071
vn 0.5879 0.3928 -0.7071
vn 0.3928 0.5879 -0.7071
vn 0.1379 0.6935 -0.7071
vn -0.1379 0.6935 -0.7071
vn -0.3928 0.5879 -0.7071
vn -0.5879 0.3928 -0.7071
vn -0.6935 0.1379 -0.7071
vn -0.6935 -0.1379 -0.7071
vn -0.5879 -0.3928 -0.7071
vn -0.3928 -0.5879 -0.7071
vn -0.1379 -0.6935 -0.7071
vn 0.1380 0.6935 -0.7071
vt 0.000000 0.000000
s 0
usemtl NullWorker
f 18/1/1 47/1/1 80/1/1 49/1/1
f 21/1/2 19/1/2 52/1/2 54/1/2
f 37/1/3 35/1/3 68/1/3 70/1/3
f 23/1/4 21/1/4 54/1/4 56/1/4
f 39/1/5 37/1/5 70/1/5 72/1/5
f 25/1/6 23/1/6 56/1/6 58/1/6
f 41/1/7 39/1/7 72/1/7 74/1/7
f 27/1/8 25/1/8 58/1/8 60/1/8
f 43/1/9 41/1/9 74/1/9 76/1/9
f 29/1/10 27/1/10 60/1/10 62/1/10
f 45/1/11 43/1/11 76/1/11 78/1/11
f 31/1/12 29/1/12 62/1/12 64/1/12
f 47/1/13 45/1/13 78/1/13 80/1/13
f 33/1/14 31/1/14 64/1/14 66/1/14
f 51/1/15 50/1/15 81/1/15 84/1/15
f 35/1/16 33/1/16 66/1/16 68/1/16
f 3/1/17 10/1/17 11/1/17 2/1/17
f 50/1/15 79/1/15 112/1/15 81/1/15
f 53/1/15 51/1/15 84/1/15 85/1/15
f 69/1/15 67/1/15 100/1/15 101/1/15
f 55/1/15 53/1/15 85/1/15 88/1/15
f 71/1/15 69/1/15 101/1/15 104/1/15
f 57/1/15 55/1/15 88/1/15 90/1/15
f 73/1/15 71/1/15 104/1/15 106/1/15
f 59/1/15 57/1/15 90/1/15 92/1/15
f 75/1/15 73/1/15 106/1/15 108/1/15
f 61/1/15 59/1/15 92/1/15 94/1/15
f 77/1/15 75/1/15 108/1/15 110/1/15
f 63/1/15 61/1/15 94/1/15 96/1/15
f 79/1/15 77/1/15 110/1/15 112/1/15
f 65/1/15 63/1/15 96/1/15 98/1/15
f 1/1/16 2/1/16 83/1/16 82/1/16
f 67/1/15 65/1/15 98/1/15 100/1/15
f 2/1/11 11/1/11 102/1/11 83/1/11
f 30/1/17 7/1/17 6/1/17 28/1/17
f 5/1/9 6/1/9 91/1/9 89/1/9
f 32/1/17 8/1/17 7/1/17 30/1/17
f 6/1/11 7/1/11 93/1/11 91/1/11
f 34/1/17 9/1/17 8/1/17 32/1/17
f 7/1/13 8/1/13 95/1/13 93/1/13
f 4/1/7 5/1/7 89/1/7 87/1/7
f 36/1/17 10/1/17 9/1/17 34/1/17
f 8/1/1 9/1/1 97/1/1 95/1/1
f 3/1/5 4/1/5 87/1/5 86/1/5
f 38/1/17 11/1/17 10/1/17 36/1/17
f 9/1/18 10/1/18 99/1/18 97/1/18
f 40/1/17 12/1/17 11/1/17 38/1/17
f 11/1/4 12/1/4 103/1/4 102/1/4
f 42/1/17 13/1/17 12/1/17 40/1/17
f 44/1/17 14/1/17 13/1/17 42/1/17
f 12/1/6 13/1/6 105/1/6 103/1/6
f 46/1/17 15/1/17 14/1/17 44/1/17
f 20/1/17 2/1/17 1/1/17 17/1/17
f 13/1/8 14/1/8 107/1/8 105/1/8
f 48/1/17 16/1/17 15/1/17 46/1/17
f 22/1/17 3/1/17 2/1/17 20/1/17
f 14/1/10 15/1/10 109/1/10 107/1/10
f 17/1/17 1/1/17 16/1/17 48/1/17
f 24/1/17 4/1/17 3/1/17 22/1/17
f 15/1/12 16/1/12 111/1/12 109/1/12
f 16/1/14 1/1/14 82/1/14 111/1/14
f 26/1/17 5/1/17 4/1/17 24/1/17
f 28/1/17 6/1/17 5/1/17 26/1/17
f 85/1/15 84/1/15 101/1/15 100/1/15
f 10/1/10 3/1/10 86/1/10 99/1/10
f 20/1/19 17/1/19 18/1/19 19/1/19
f 22/1/20 20/1/20 19/1/20 21/1/20
f 24/1/21 22/1/21 21/1/21 23/1/21
f 26/1/22 24/1/22 23/1/22 25/1/22
f 28/1/23 26/1/23 25/1/23 27/1/23
f 30/1/24 28/1/24 27/1/24 29/1/24
f 32/1/25 30/1/25 29/1/25 31/1/25
f 34/1/26 32/1/26 31/1/26 33/1/26
f 36/1/27 34/1/27 33/1/27 35/1/27
f 38/1/28 36/1/28 35/1/28 37/1/28
f 40/1/29 38/1/29 37/1/29 39/1/29
f 42/1/30 40/1/30 39/1/30 41/1/30
f 44/1/31 42/1/31 41/1/31 43/1/31
f 46/1/32 44/1/32 43/1/32 45/1/32
f 48/1/33 46/1/33 45/1/33 47/1/33
f 17/1/34 48/1/34 47/1/34 18/1/34
f 52/1/35 49/1/35 50/1/35 51/1/35
f 54/1/36 52/1/36 51/1/36 53/1/36
f 56/1/37 54/1/37 53/1/37 55/1/37
f 58/1/38 56/1/38 55/1/38 57/1/38
f 60/1/39 58/1/39 57/1/39 59/1/39
f 62/1/40 60/1/40 59/1/40 61/1/40
f 64/1/41 62/1/41 61/1/41 63/1/41
f 66/1/42 64/1/42 63/1/42 65/1/42
f 68/1/43 66/1/43 65/1/43 67/1/43
f 70/1/44 68/1/44 67/1/44 69/1/44
f 72/1/45 70/1/45 69/1/45 71/1/45
f 74/1/46 72/1/46 71/1/46 73/1/46
f 76/1/47 74/1/47 73/1/47 75/1/47
f 78/1/48 76/1/48 75/1/48 77/1/48
f 80/1/49 78/1/49 77/1/49 79/1/49
f 49/1/50 80/1/50 79/1/50 50/1/50
f 84/1/43 81/1/43 82/1/43 83/1/43
f 88/1/45 85/1/45 86/1/45 87/1/45
f 90/1/46 88/1/46 87/1/46 89/1/46
f 92/1/47 90/1/47 89/1/47 91/1/47
f 94/1/48 92/1/48 91/1/48 93/1/48
f 96/1/49 94/1/49 93/1/49 95/1/49
f 98/1/50 96/1/50 95/1/50 97/1/50
f 100/1/35 98/1/35 97/1/35 99/1/35
f 104/1/37 101/1/37 102/1/37 103/1/37
f 106/1/38 104/1/38 103/1/38 105/1/38
f 108/1/39 106/1/39 105/1/39 107/1/39
f 110/1/40 108/1/40 107/1/40 109/1/40
f 112/1/41 110/1/41 109/1/41 111/1/41
f 81/1/51 112/1/51 111/1/51 82/1/51
f 85/1/40 100/1/40 99/1/40 86/1/40
f 83/1/48 102/1/48 101/1/48 84/1/48
f 19/1/18 18/1/18 49/1/18 52/1/18
